<?xml version="1.0" encoding="utf-8"?>
<!-- Generator: Adobe Illustrator 18.1.1, SVG Export Plug-In . SVG Version: 6.00 Build 0)  -->
<svg version="1.1" xmlns="http://www.w3.org/2000/svg" xmlns:xlink="http://www.w3.org/1999/xlink" x="0px" y="0px"
	 viewBox="0 0 1000 1000" enable-background="new 0 0 1000 1000" xml:space="preserve">
<g id="bg" display="none">
	<rect display="inline" fill="#FF00FF" width="1000" height="1000"/>
</g>
<g id="dialgoue_cards" display="none">
	<g display="inline">
		<path fill="#CC0099" d="M646.4,372.7l-155.1-56.3c-10.9-4-22.9,1.7-26.9,12.6l-7.6,21h71.9c19.3,0,35.3,15.6,35.3,34.9v276.7
			c0-0.3,0.1-0.5,0.2-0.7l94.9-261.3C663,388.7,657.3,376.7,646.4,372.7z"/>
		<path fill="#CC0099" d="M547,386c0-11.6-9.4-21-21-21H361c-11.6,0-21,9.4-21,21v278c0,11.6,9.4,21,21,21h165c11.6,0,21-9.4,21-21
			V386z M400,553.9c-1.8,0.5-3.8,1.1-5.8,1.1c-0.1,0-0.1,0-0.2,0c-1,0-1.9-0.9-2.1-2c-0.3-1.3,0.6-2.1,1.3-3
			c2.6-2.9,5.6-5.6,7.8-11.1c-10.8-6.3-17.8-16-17.8-26.9c0-19,21.1-34.3,47.1-34.3s47.1,15.3,47.1,34.3s-21.1,34.3-47.1,34.3
			c-4.1,0-8-0.4-11.8-1C413,549.2,406.7,552.1,400,553.9z M493.3,567.2c0.7,0.9,1.6,1.7,1.3,2.9c-0.3,1.2-1.3,2.1-2.3,1.9
			c-2-0.3-4-0.6-5.8-1.1c-6.8-1.7-13.1-4.6-18.6-8.6c-3.8,0.7-7.7,1.1-11.8,1.1c-12.1,0-23.2-3.3-31.6-8.8c1.9,0.1,4,0.3,5.9,0.3
			c14.4,0,28-4.2,38.4-11.7c11.2-8.2,17.3-19.2,17.3-31.2c0-3.5-0.5-6.9-1.5-10.2c11.3,6.2,18.7,16.1,18.7,27.3
			c0,10.9-7,20.6-17.8,26.9C487.7,561.6,490.7,564.2,493.3,567.2z"/>
	</g>
</g>
<g id="flashcards" display="none">
	<g display="inline">
		<path fill="#CC0099" d="M646.4,372.7l-155.1-56.3c-10.9-4-22.9,1.7-26.9,12.6l-7.6,21h71.9c19.3,0,35.3,15.6,35.3,34.9v276.7
			c0-0.3,0.1-0.5,0.2-0.7l94.9-261.3C663,388.7,657.3,376.7,646.4,372.7z"/>
		<path fill="#CC0099" d="M547,386c0-11.6-9.4-21-21-21H361c-11.6,0-21,9.4-21,21v278c0,11.6,9.4,21,21,21h165c11.6,0,21-9.4,21-21
			V386z M405.6,601.2l44.2-75.2h-44.2l37.3-78h36.9l-37,53h50.5L405.6,601.2z"/>
	</g>
</g>
<g id="contact_button" display="none">
	<g display="inline">
		<path fill="#FFFFFF" d="M689,487.5V357.7c-20,34.1-95.6,58.9-188.9,58.9c-93.6,0-170.1-24.9-189.1-59.2v131.2
			c0,1.2-0.3,2.4-0.3,3.6c0,39.7,84.7,71.9,189.3,71.9s189.4-32.2,189.4-71.9C689.4,490.6,689,489,689,487.5z"/>
		<path fill="#FFFFFF" d="M500,401.1c104.6,0,189.3-32.2,189.3-71.9s-84.8-71.9-189.3-71.9s-189.3,32.2-189.3,71.9
			S395.4,401.1,500,401.1z M500,274.1c26.1,0,47.3,11.1,47.3,24.7c0,13.6-21.2,24.7-47.3,24.7s-47.3-11.1-47.3-24.7
			C452.7,285.2,473.9,274.1,500,274.1z M455.9,319.4c3.8,0,19.9,8.9,44.1,8.9s40.2-8.9,44.1-8.9c36.1,0,42.6,22.3,42.6,36.9
			c0,10.4-13.3,16.7-32.9,16.7H446.2c-19.6,0-32.9-6.2-32.9-16.7C413.4,341.8,419.9,319.4,455.9,319.4z"/>
	</g>
</g>
<g id="boardgame" display="none">
	<g display="inline">
		<g>
			<g>
				<polygon fill="#CC0099" points="408.9,597 498.3,645.1 587.6,597 498.3,549 				"/>
				<polygon fill="#CC0099" points="320.9,547.7 410.2,499.6 320.9,451.5 231.5,499.6 				"/>
				<path fill="#CC0099" d="M547.6,500.6c0.2-1.4,0.4-2.9,0.6-4.6c0.8-6.5,2.4-11.6,4.3-16l-53-28.5l-89.3,48.1l89.3,48.1l46.6-25.1
					C546,513,546.7,507.9,547.6,500.6z"/>
				<g>
					<g>
						<path fill="#CC0099" d="M498.7,355.8L411.1,403l89.3,48.1l53.2-28.6c-0.1-0.8-0.1-1.6-0.1-2.3c0-11.9,6.1-22.3,15.4-28.3
							l-68.5-36.9"/>
						<path fill="#CC0099" d="M677.4,452l-54.6,29.4c1.6,4.1,3,8.8,3.7,14.6c0.2,1.7,0.4,3.2,0.6,4.6c0.9,6.6,1.5,11.4,1.5,19.4
							l50.6,27.2l87.6-47.1"/>
						<line fill="#CC0099" x1="768.5" y1="499.1" x2="679.1" y2="451"/>
					</g>
				</g>
			</g>
		</g>
		<path fill="#CC0099" d="M614.3,495c-1.6-14.2-7.5-20.8-10.4-27.7c-2.2-5.4-3.9-16.1-1.5-23.1c4.6-4.5,7.5-11.1,7.5-18.4
			c0-13.7-10.1-24.8-22.5-24.8s-22.5,11.1-22.5,24.8c0,7.3,2.9,13.9,7.5,18.4c2.4,7,0.7,17.7-1.5,23.1c-2.8,6.9-8.8,13.5-10.4,27.7
			c-1.6,14.2-2.7,17,0,49.5c6.6,10.3,23,10.6,26.9,10.6c3.9,0.1,20.3-0.2,26.9-10.6C617,512,615.9,509.1,614.3,495z"/>
	</g>
</g>
<g id="blanks" display="none">
	<g display="inline">
		<path fill="#CC0099" d="M471.5,546.6c-4,3.9-7.4,9.4-10.3,16.3c-2.8,6.6-4.1,12.7-4.1,18.2c0,5.5,1.1,10.6,3.4,15.1
			s5.4,8.5,9.6,11.9c4.2,3.4,9,6.2,14.4,8.5c5.1,2.1,10.3,3.5,15.5,4c5.2,0.5,10.2,0,15-1.6c4.8-1.6,9.2-4.3,13.2-8.2
			c4-3.8,7.4-9.1,10.2-15.7c2.9-6.9,4.3-13.2,4.2-18.8c-0.1-5.6-1.2-10.6-3.5-15.1c-2.3-4.4-5.5-8.2-9.5-11.5s-8.7-6-13.8-8.1
			c-5.4-2.3-10.8-3.7-16.1-4.4c-5.3-0.7-10.4-0.3-15.1,1.2C479.8,539.9,475.5,542.6,471.5,546.6z"/>
		<path fill="#CC0099" d="M702.4,371.4c-0.4-11.7-3.3-22.7-8.8-33.1c-5.5-10.4-13.5-19.9-24-28.5c-10.5-8.6-23.3-16.1-38.2-22.3
			c-7.9-3.3-16.3-5.9-25.1-7.9c-8.8-2-17.8-3.3-26.9-4.1c-9.1-0.8-18-1.1-26.8-0.9c-8.8,0.2-17.1,0.8-24.9,1.9l2.1,58
			c15-1,29.3-1.1,42.7-0.5c13.4,0.6,25.2,3,35.4,7.3c11.6,4.8,19.1,11.2,22.5,19c3.4,7.8,3.3,15.9-0.2,24.2
			c-2.3,5.4-4.8,10-7.7,13.6c-2.9,3.6-6.4,6.7-10.6,9.4s-9.2,5-15.1,7c-5.9,2-12.9,4.2-21.1,6.5c-9.4,2.6-17.6,5.5-24.8,8.6
			c-7.2,3.1-13.5,6.8-18.9,11c-5.5,4.2-10.2,9-14.3,14.4c-4.1,5.4-7.7,11.9-10.8,19.4l-6.8,16.3l58.1,24.3l5.5-13.2
			c2-4.7,4.1-8.6,6.3-11.7c2.2-3.1,5.1-5.8,8.7-8.1c3.5-2.3,8-4.4,13.4-6.4c5.4-2,12.2-4.1,20.4-6.4c10.8-3.1,20.4-6.3,28.9-9.5
			c8.5-3.3,16.1-7.2,22.7-11.7c6.6-4.5,12.5-10,17.6-16.4c5.1-6.4,9.6-14.2,13.4-23.5C700.3,395.3,702.7,383.1,702.4,371.4z"/>
		<path fill="#CC0099" d="M618,696H328V406h226.1c4.9-2,10.1-3.6,15.6-5.2c7.8-2.2,14.5-4.3,19.9-6.2c4.4-1.5,8.1-3.3,11-5.1
			c2.3-1.4,4.2-3.1,5.7-5c1.7-2.1,3.4-4.9,4.9-8.6c0-0.1,0,0,0.1,0H298v350h350V477.3c-9,3.4-19,6.7-30,9.9V696z"/>
	</g>
</g>
<g id="Iv" display="none">
	<g display="inline">
		<path fill="#CC0099" d="M724.9,590.4c-26.7-26.7-33.3-72.3-62.8-101.9c-17.2-17.2-35.8-21.8-54.3-3.4c-2.9,2.9-5.5,6.1-7.8,9.3
			c-9.9-2.9-22.1,2.3-29.1,9.3c-3.7,3.7-6.4,8.2-7.8,13.3c-10.1-0.3-19.1,2.9-26.2,10.1c-4.9,4.9-9.9,14.2-10.4,21L476,497.7
			c-10.5-10.5-28.5-10.5-39,0c-10.4,10.4-10.2,28.8,0,39l87.9,87.9c-9.6,9.6-34.2,4.9-53.7,24.4c-14.6,14.6-8.1,31,4.9,43.9
			c4.3,4.3,29.7-5.6,34.9-7.5c5.2-1.5,10.4-3.1,15.6-4.3c13.1-3.1,25.9-4.3,39.2-5c20.9-1.4,45.5-4.3,61.6,11.9l4.9,4.9l97.6-97.6
			L724.9,590.4z"/>
		<path fill="#CC0099" d="M453.9,475.2c10.8,0,20.9,4.1,28.4,11.6l3.3,3.3l23.2-13.6c4.1-2.3,6.6-6.6,6.6-11.4
			c0-4.8-2.5-9.1-6.6-11.4l-112.6-66.3c-3.9-2.5-9.2-2.5-13.4-0.2c-4.1,2.5-6.7,6.8-6.7,11.6v132.5c0,4.8,2.6,9.1,6.7,11.6
			c2.1,1,4.4,1.7,6.7,1.7c2.3,0,4.6-0.6,6.7-1.9l20.9-12.3c-1.9-4.7-2.9-9.9-2.9-15.2c0-10.8,4.1-21.2,11.4-28.5
			C433,479.3,443,475.2,453.9,475.2z"/>
		<path fill="#CC0099" d="M456.4,574.4c-8.7,2.2-17.8,3.3-27.2,3.3c-62.1,0-112.6-50.5-112.6-112.6c0-62.1,50.5-112.6,112.6-112.6
			S541.8,402.9,541.8,465c0,16.2-3.4,31.6-9.6,45.5c5.9-4,12.5-6.6,19.7-7.6c2-3.7,4.5-7.1,7.5-10.1c7.5-7.5,18-12.6,28.2-13.6
			c0.4-4.7,0.6-9.4,0.6-14.2c0-87.8-71.2-159-159-159s-159,71.2-159,159s71.2,159,159,159c22.6,0,44.1-4.7,63.6-13.3L456.4,574.4z"
			/>
	</g>
</g>
<g id="picture_slider" display="none">
	<g display="inline">
		<path fill="#CC0099" d="M407,476.1c19.4,0,35.1-15.7,35.1-35.1c0-19.4-15.7-35.1-35.1-35.1c-19.4,0-35.1,15.7-35.1,35.1
			C371.9,460.4,387.6,476.1,407,476.1z"/>
		<path fill="#CC0099" d="M419.1,496h-91.9l21.5-21.2c1.8-1.8,2.8-4,2.8-6.5c0-2.5-1-4.8-2.8-6.6l-5.5-5.4c-1.8-1.8-4.1-2.8-6.6-2.8
			c-2.5,0-4.9,1-6.7,2.8L282.2,504c-1.7,1.8-2.7,4.2-2.7,6.7c0,2.5,1,4.9,2.7,6.6l47.8,47.8c1.8,1.7,4.2,2.7,6.7,2.7
			c2.5,0,4.9-1,6.6-2.7l5.5-5.6c1.8-1.7,2.8-4.1,2.8-6.6c0-2.5-1-5.3-2.8-7l-21.5-22h91.9c5.3,0,8.9-3.6,8.9-8.6V506
			C428,501,424.4,496,419.1,496z"/>
		<path fill="#CC0099" d="M670.1,454.9c-1.8-1.7-4.2-2.7-6.7-2.7c-2.5,0-4.9,1-6.6,2.7l-5.5,5.6c-1.8,1.7-2.8,4.1-2.8,6.6
			c0,2.5,1,4.8,2.8,6.5l21.5,21.4h-91.9c-5.3,0-8.9,4.7-8.9,9.7v9.4c0,5,3.6,8.9,8.9,8.9h91.9l-21.5,21.7c-1.8,1.8-2.8,4.3-2.8,6.8
			s1,5,2.8,6.7l5.5,5.5c1.8,1.8,4.1,2.8,6.6,2.8c2.5,0,4.9-1,6.7-2.8l47.8-47.7c1.7-1.8,2.7-4.2,2.7-6.7c0-2.5-1-4.9-2.7-6.6
			L670.1,454.9z"/>
		<g>
			<path fill="#CC0099" d="M646.4,359H353.8c-16.2,0-29.8,13.4-29.8,29.5v56.4c4-2.6,8.2-4.1,12.5-4.1c4.4,0,8.5,1.5,12.5,4.1v-57
				c0-3.2,2.3-5.9,5.5-5.9h292.6c3.2,0,5.9,2.7,5.9,5.9v54.6c2-1.9,6.9-3,10.6-3c4.4,0,8.4,1.5,12.4,4.2v-55.1
				C676,372.4,662.6,359,646.4,359z"/>
			<path fill="#CC0099" d="M653,572.3v38.5c0,3.2-2.7,6.2-5.9,6.2H354.5c-3.2,0-5.5-3-5.5-6.2v-38.2c-4,2.6-8.1,4-12.5,4
				c-4.3,0-8.5-1.5-12.5-4v38.9c0,16.2,13.6,29.5,29.8,29.5h292.6c16.2,0,29.6-13.4,29.6-29.5V571c-4,2.7-8,4.3-12.4,4.3
				C659.8,575.3,655,574.2,653,572.3z"/>
		</g>
		<path fill="#CC0099" d="M580.9,534c-10.9,0-20.9-10.9-20.9-21.9v-9.4c0-10.7,9.6-18.7,20.9-18.7h21.8l-49-48.9l-94.1,93.7
			L437,506.4v7c0,12.2-7.3,21.6-17.9,21.6h-24.4L371,558.1V594h259v-60H580.9z"/>
	</g>
</g>
<g id="cp" display="none">
	<g display="inline">
		<path fill="#CC0099" d="M666.4,327H527.3c-2.6-7-13.3-12-26-12h-2.5c-12.8,0-23.4,5-26,12H333.6c-12.5,0-22.6,10.3-22.6,22.8v0.4
			c0,8.5,4.4,15.8,11.3,19.7c-0.1,1-0.3,1.9-0.3,2.9v158.6c0,21.7,18,39.6,39.7,39.6h116.1c-0.6,0-1.1,0.7-1.6,1.2l-60.3,60.2
			c-5,5-5,12.9,0,17.9c2.5,2.5,5.7,3.7,9,3.7s6.7-1.2,9.2-3.7l49.9-49.7v70.3c0,8.1,6.4,14.6,14.5,14.6s14.5-6.5,14.5-14.6V598
			l52.1,52.3c2.5,2.5,5.6,3.7,8.9,3.7s6.5-1.2,8.9-3.7c5-5,4.9-13,0-17.9l-60.3-60.1c-0.5-0.5-1.1-1.2-1.7-1.2h113.5
			c21.7,0,39.5-17.9,39.5-39.6V372.8c0-0.4-0.1-0.8-0.1-1.3c8.9-3.1,15.1-11.5,15.1-21.4v-0.4C689,337.3,678.9,327,666.4,327z
			 M648,531.4c0,7.7-5.8,14.6-13.5,14.6H361.7c-7.7,0-13.7-6.9-13.7-14.6V373h300V531.4z"/>
		<path fill="#CC0099" d="M423.5,515.7c31.4,0,56.9-24.7,57.1-56.7H424v-57.4c0,0-0.3,0-0.4,0c-31.5,0-57.1,25.5-57.1,57.1
			C366.4,490.1,392,515.7,423.5,515.7z"/>
		<path fill="#CC0099" d="M508.9,419h98.9c4.9,0,8.9-4.1,8.9-9s-4-9-8.9-9h-98.9c-4.9,0-8.9,4.1-8.9,9S504,419,508.9,419z"/>
		<path fill="#CC0099" d="M508.9,449h115.4c4.9,0,8.9-4.1,8.9-9s-4-9-8.9-9H508.9c-4.9,0-8.9,4.1-8.9,9S504,449,508.9,449z"/>
		<path fill="#CC0099" d="M508.9,482h85c4.9,0,8.9-4.1,8.9-9s-4-9-8.9-9h-85c-4.9,0-8.9,4.1-8.9,9S504,482,508.9,482z"/>
		<path fill="#CC0099" d="M508.9,513h104c4.9,0,8.9-4.1,8.9-9s-4-9-8.9-9h-104c-4.9,0-8.9,4.1-8.9,9S504,513,508.9,513z"/>
	</g>
</g>
<g id="question_set" display="none">
	<g display="inline">
		<polygon fill="#CC0099" points="636.6,474.8 656,487.3 497.7,590.9 344,491.6 363.5,478.8 340.6,464 298.2,491.7 497.8,620.7 
			701.8,487.1 659.5,459.8 		"/>
		<polygon fill="#CC0099" points="636.6,556 656,568.5 497.7,672.1 344,572.8 363.5,560 340.6,545.2 298.2,572.9 497.8,702 
			701.8,568.4 659.5,541 		"/>
		<polygon fill="#FFFFFF" stroke="#CC0099" stroke-width="24.9967" stroke-miterlimit="10" points="495.7,530.8 319,416.6 
			500.1,298 676.8,412.2 		"/>
		<g>
			<path fill="#CC0099" d="M479,432.6v-5.5c0-2.5,0.4-4.9,1.1-6.9c0.7-2.1,1.8-4,3.3-5.9c1.5-1.9,3.4-3.7,5.8-5.5
				c2.4-1.8,5.2-3.6,8.6-5.5c2.9-1.6,5.4-3.1,7.4-4.4c2-1.3,3.7-2.6,4.9-3.9s2.2-2.6,2.7-4c0.6-1.4,0.8-3,0.8-4.9c0-2.8-1.3-5.2-4-7
				c-2.7-1.8-6.8-2.8-12.3-2.8c-4.8,0-10,0.7-15.5,2.2c-5.5,1.5-11.2,3.2-17.2,5.3l-10.6-16.6c3-1.2,6.2-2.4,9.8-3.6
				c3.5-1.1,7.2-2.1,11-3c3.8-0.9,7.6-1.6,11.5-2.1c3.9-0.5,7.7-0.7,11.5-0.7c7.1,0,13.5,0.6,19.2,1.8c5.7,1.2,10.5,3,14.5,5.4
				c4,2.3,7,5.2,9.1,8.5c2.1,3.3,3.2,7.2,3.2,11.5c0,3.1-0.5,6-1.5,8.4c-1,2.5-2.4,4.8-4.3,6.9c-1.9,2.1-4.3,4.2-7.2,6.1
				c-2.9,2-6.2,4.1-10.1,6.3c-2.9,1.6-5.3,3.1-7.1,4.3c-1.8,1.2-3.3,2.4-4.3,3.5c-1,1.1-1.8,2.2-2.1,3.4c-0.4,1.2-0.6,2.6-0.6,4.2
				v4.5H479z M475.6,458.3c0-2.3,0.5-4.3,1.4-6c0.9-1.6,2.2-2.9,3.9-3.9c1.7-1,3.6-1.7,5.9-2.2c2.3-0.4,4.7-0.7,7.2-0.7
				c2.4,0,4.7,0.2,6.9,0.7c2.2,0.4,4.1,1.2,5.8,2.2c1.7,1,3,2.3,4,3.9c1,1.6,1.5,3.6,1.5,6c0,2.2-0.5,4.2-1.5,5.8
				c-1,1.6-2.3,2.9-4,4c-1.7,1-3.6,1.8-5.8,2.3c-2.2,0.5-4.5,0.7-6.9,0.7c-2.6,0-5-0.2-7.2-0.7c-2.3-0.5-4.2-1.2-5.9-2.3
				c-1.7-1-3-2.4-3.9-4C476.1,462.5,475.6,460.5,475.6,458.3z"/>
		</g>
	</g>
</g>
<g id="timeline" display="none">
	<g display="inline">
		<path fill="#CC0099" d="M676.3,520c10.4,0,18.9-8.1,18.9-18.5s-8.5-18.5-18.9-18.5H343v-67h333.3c10.4,0,18.9-8.1,18.9-18.5
			s-8.5-18.5-18.9-18.5H343v-48.1c0-10.4-8.6-18.9-19-18.9s-19,8.5-19,18.9v338.2c0,10.4,8.6,18.9,19,18.9s19-8.5,19-18.9V622h333.3
			c10.4,0,18.9-8.1,18.9-18.5s-8.5-18.5-18.9-18.5H343v-65H676.3z"/>
		<g>
			<path fill="#CC0099" d="M538.5,383.7c7.3,7.3,7.3,19.4,0,26.7l-36.9,36.9c-7.3,7.3-19.4,7.3-26.7,0L438,410.4
				c-7.3-7.3-7.3-19.4,0-26.7l36.9-36.9c7.3-7.3,19.4-7.3,26.7,0L538.5,383.7z"/>
		</g>
		<g>
			<path fill="#CC0099" d="M651.9,487.6c7.3,7.3,7.3,19.4,0,26.7L615,551.2c-7.3,7.3-19.4,7.3-26.7,0l-36.9-36.9
				c-7.3-7.3-7.3-19.4,0-26.7l36.9-36.9c7.3-7.3,19.4-7.3,26.7,0L651.9,487.6z"/>
		</g>
		<g>
			<path fill="#CC0099" d="M455.4,589.6c7.3,7.3,7.3,19.4,0,26.7l-36.9,36.9c-7.3,7.3-19.4,7.3-26.7,0l-36.9-36.9
				c-7.3-7.3-7.3-19.4,0-26.7l36.9-36.9c7.3-7.3,19.4-7.3,26.7,0L455.4,589.6z"/>
		</g>
	</g>
</g>
<g id="image_hotspot" display="none">
	<g display="inline">
		<g>
			<path fill="#CC0099" d="M403,462.1c12.5-8.2,20.8-22.3,20.8-38.4c0-25.3-20.5-45.8-45.8-45.8c-25.3,0-45.8,20.5-45.8,45.8
				c0,2.3,0.2,4.6,0.5,6.9c4.5-1,9.2-1.6,14.1-1.6C371,429,392,442.4,403,462.1z"/>
			<path fill="#CC0099" d="M645.8,537.9c-35.5,0-64.2-28.8-64.2-64.3c0-12.8,3.8-24.7,10.2-34.7L569,416.1L446.8,538.3L410.5,502
				c-4.1,30-28.8,53.4-59.4,55.5l-19.1,19V623h116.6c-2.6-7-4-14.8-4-22.7c0-35.5,28.8-64.5,64.3-64.5c35.5,0,64.3,29,64.3,64.6
				c0,7.9-1.4,15.6-4,22.6H668v-89.1C661,536.5,653.7,537.9,645.8,537.9z"/>
			<path fill="#CC0099" d="M730,355.2c0-21.1-17.1-38.2-38.2-38.2H309.2c-21.1,0-38.2,17.1-38.2,38.2v289.6
				c0,21.1,17.1,38.2,38.2,38.2h382.6c21.1,0,38.2-17.1,38.2-38.2V355.2z M699,510.3v135c0,4.1-3.7,7.7-7.8,7.7H545.6
				c-10.4,7-23,11.5-36.6,11.5c-13.6,0-26.2-4.5-36.6-11.5H309.3c-4.1,0-7.3-3.7-7.3-7.7V539.1c-13-11.7-19.2-27.9-19.2-45.8
				c0-17.9,6.2-34.1,19.2-45.8v-92.6c0-4.1,3.2-6.9,7.3-6.9h382c4.1,0,7.8,2.9,7.8,6.9v82c7,10.4,11.5,23,11.5,36.6
				S706,499.9,699,510.3z"/>
		</g>
		<g>
			<path fill="#CC0099" d="M688.6,449c4.4,7.5,6.6,15.7,6.6,24.7s-2.2,17.1-6.6,24.7c-4.4,7.5-10.4,13.5-17.9,17.9
				c-7.5,4.4-15.7,6.6-24.7,6.6c-8.9,0-17.1-2.2-24.7-6.6c-7.5-4.4-13.5-10.4-17.9-17.9c-4.4-7.5-6.6-15.7-6.6-24.7
				s2.2-17.1,6.6-24.7c4.4-7.5,10.4-13.5,17.9-17.9c7.5-4.4,15.7-6.6,24.7-6.6c8.9,0,17.1,2.2,24.7,6.6
				C678.2,435.5,684.2,441.4,688.6,449z M663.5,443.5c-5.3-3.1-11.1-4.7-17.5-4.7c-6.3,0-12.1,1.6-17.5,4.7
				c-5.3,3.1-9.6,7.3-12.7,12.7c-3.1,5.3-4.7,11.2-4.7,17.5c0,6.3,1.6,12.1,4.7,17.5c3.1,5.3,7.3,9.6,12.7,12.7
				c5.3,3.1,11.2,4.7,17.5,4.7c6.3,0,12.1-1.6,17.5-4.7c5.3-3.1,9.6-7.3,12.7-12.7c3.1-5.3,4.7-11.2,4.7-17.5
				c0-6.3-1.6-12.1-4.7-17.5C673.1,450.8,668.9,446.6,663.5,443.5z M657.6,462c3.2,3.2,4.8,7.1,4.8,11.6c0,4.5-1.6,8.4-4.8,11.6
				c-3.2,3.2-7.1,4.8-11.6,4.8c-4.5,0-8.4-1.6-11.6-4.8c-3.2-3.2-4.8-7.1-4.8-11.6c0-4.5,1.6-8.4,4.8-11.6c3.2-3.2,7.1-4.8,11.6-4.8
				C650.6,457.2,654.4,458.8,657.6,462z"/>
		</g>
		<g>
			<path fill="#CC0099" d="M551.5,576.2c4.4,7.5,6.6,15.7,6.6,24.7s-2.2,17.1-6.6,24.7c-4.4,7.5-10.4,13.5-17.9,17.9
				c-7.5,4.4-15.7,6.6-24.7,6.6c-8.9,0-17.1-2.2-24.7-6.6c-7.5-4.4-13.5-10.4-17.9-17.9c-4.4-7.5-6.6-15.7-6.6-24.7
				s2.2-17.1,6.6-24.7c4.4-7.5,10.4-13.5,17.9-17.9c7.5-4.4,15.7-6.6,24.7-6.6c8.9,0,17.1,2.2,24.7,6.6
				C541.1,562.7,547.1,568.7,551.5,576.2z M526.4,570.7c-5.3-3.1-11.1-4.7-17.5-4.7c-6.3,0-12.1,1.6-17.5,4.7
				c-5.3,3.1-9.6,7.3-12.7,12.7c-3.1,5.3-4.7,11.2-4.7,17.5s1.6,12.1,4.7,17.5c3.1,5.3,7.3,9.6,12.7,12.7c5.3,3.1,11.2,4.7,17.5,4.7
				c6.3,0,12.1-1.6,17.5-4.7c5.3-3.1,9.6-7.3,12.7-12.7c3.1-5.3,4.7-11.2,4.7-17.5s-1.6-12.1-4.7-17.5
				C536,578.1,531.8,573.8,526.4,570.7z M520.5,589.3c3.2,3.2,4.8,7.1,4.8,11.6s-1.6,8.4-4.8,11.6c-3.2,3.2-7.1,4.8-11.6,4.8
				c-4.5,0-8.4-1.6-11.6-4.8c-3.2-3.2-4.8-7.1-4.8-11.6s1.6-8.4,4.8-11.6c3.2-3.2,7.1-4.8,11.6-4.8
				C513.5,584.5,517.3,586.1,520.5,589.3z"/>
		</g>
		<g>
			<path fill="#CC0099" d="M388,469.1c4.4,7.5,6.6,15.7,6.6,24.7s-2.2,17.1-6.6,24.7c-4.4,7.5-10.4,13.5-17.9,17.9
				c-7.5,4.4-15.7,6.6-24.7,6.6c-8.9,0-17.1-2.2-24.7-6.6c-7.5-4.4-13.5-10.4-17.9-17.9c-4.4-7.5-6.6-15.7-6.6-24.7
				s2.2-17.1,6.6-24.7c4.4-7.5,10.4-13.5,17.9-17.9c7.5-4.4,15.7-6.6,24.7-6.6c8.9,0,17.1,2.2,24.7,6.6
				C377.6,455.6,383.6,461.6,388,469.1z M362.9,463.6c-5.3-3.1-11.1-4.7-17.5-4.7c-6.3,0-12.1,1.6-17.5,4.7
				c-5.3,3.1-9.6,7.3-12.7,12.7c-3.1,5.3-4.7,11.2-4.7,17.5c0,6.3,1.6,12.1,4.7,17.5c3.1,5.3,7.3,9.6,12.7,12.7
				c5.3,3.1,11.2,4.7,17.5,4.7c6.3,0,12.1-1.6,17.5-4.7c5.3-3.1,9.6-7.3,12.7-12.7c3.1-5.3,4.7-11.2,4.7-17.5
				c0-6.3-1.6-12.1-4.7-17.5C372.4,471,368.2,466.8,362.9,463.6z M357,482.2c3.2,3.2,4.8,7.1,4.8,11.6c0,4.5-1.6,8.4-4.8,11.6
				c-3.2,3.2-7.1,4.8-11.6,4.8c-4.5,0-8.4-1.6-11.6-4.8c-3.2-3.2-4.8-7.1-4.8-11.6c0-4.5,1.6-8.4,4.8-11.6c3.2-3.2,7.1-4.8,11.6-4.8
				C350,477.4,353.8,479,357,482.2z"/>
		</g>
	</g>
</g>
<g id="memory_game" display="none">
	<g display="inline">
		<g>
			<rect x="213" y="219" fill="#CC0099" width="165" height="165"/>
			<rect x="417" y="219" fill="#CC0099" width="165" height="165"/>
			<g>
				<path fill="#CC0099" d="M765,240v125H640V240H765 M785,220H620v165h165V220L785,220z"/>
			</g>
			<g>
				<rect x="222" y="435" fill="#FFFFFF" width="145" height="145"/>
				<path fill="#CC0099" d="M357,445v125H232V445H357 M377,425H212v165h165V425L377,425z"/>
			</g>
			<rect x="417" y="424" fill="#CC0099" width="165" height="165"/>
			<rect x="621" y="424" fill="#CC0099" width="165" height="165"/>
			<rect x="213" y="625" fill="#CC0099" width="165" height="165"/>
			<rect x="417" y="625" fill="#CC0099" width="165" height="165"/>
			<rect x="621" y="625" fill="#CC0099" width="165" height="165"/>
		</g>
		<g>
			<path fill="#CC0099" d="M342.7,498.8l-21.5,20.9l5.1,29.6c0.1,0.4,0.1,0.8,0.1,1.2c0,1.5-0.7,3-2.4,3c-0.8,0-1.7-0.3-2.4-0.7
				l-26.6-14l-26.6,14c-0.8,0.4-1.5,0.7-2.4,0.7c-1.7,0-2.5-1.4-2.5-3c0-0.4,0.1-0.8,0.1-1.2l5.1-29.6l-21.5-20.9
				c-0.7-0.8-1.5-1.8-1.5-2.8c0-1.8,1.8-2.5,3.3-2.7l29.7-4.3l13.3-26.9c0.5-1.1,1.5-2.4,2.9-2.4s2.4,1.3,2.9,2.4l13.3,26.9
				l29.7,4.3c1.4,0.2,3.3,0.9,3.3,2.7C344.3,497,343.5,498,342.7,498.8z"/>
		</g>
		<g>
			<path fill="#CC0099" d="M751.2,292.8l-21.5,20.9l5.1,29.6c0.1,0.4,0.1,0.8,0.1,1.2c0,1.5-0.7,3-2.4,3c-0.8,0-1.7-0.3-2.4-0.7
				l-26.6-14l-26.6,14c-0.8,0.4-1.5,0.7-2.4,0.7c-1.7,0-2.5-1.4-2.5-3c0-0.4,0.1-0.8,0.1-1.2l5.1-29.6l-21.5-20.9
				c-0.7-0.8-1.5-1.8-1.5-2.8c0-1.8,1.8-2.5,3.3-2.7l29.7-4.3l13.3-26.9c0.5-1.1,1.5-2.4,2.9-2.4s2.4,1.3,2.9,2.4l13.3,26.9
				l29.7,4.3c1.4,0.2,3.3,0.9,3.3,2.7C752.7,291.1,751.9,292.1,751.2,292.8z"/>
		</g>
	</g>
</g>
<g id="drag_and_drop" display="none">
	<g display="inline">
		<g>
			<path fill="none" stroke="#CC0099" stroke-width="22" stroke-miterlimit="10" stroke-dasharray="26.163,26.163" d="M601,558.8
				c0,13.4-10.8,24.2-24.2,24.2H236.2c-13.4,0-24.2-10.8-24.2-24.2V295.2c0-13.4,10.8-24.2,24.2-24.2h340.6
				c13.4,0,24.2,10.8,24.2,24.2V558.8z"/>
		</g>
		<path fill="#CC0099" d="M788,705.8c0,13.4-10.8,24.2-24.2,24.2H423.2c-13.4,0-24.2-10.8-24.2-24.2V442.2
			c0-13.4,10.8-24.2,24.2-24.2h340.6c13.4,0,24.2,10.8,24.2,24.2V705.8z"/>
	</g>
</g>
<g id="drag_text" display="none">
	<g display="inline">
		<g>
			<path fill="#CC0099" d="M605.8,525.7c-7.9-10.9-18.8-17.1-32.7-17.1c-14.8,0-25.9,9.3-33.5,16.3h-1.3c0.8-7-0.3-16.1-0.3-20.9
				V469h-35v162h29l5.4-14h2.2c7.9,14,18.8,15.2,32.6,15.2c14,0,25.1-5.3,33.2-16c8.1-10.7,12.2-26,12.2-45.5
				C617.6,551.7,613.7,536.6,605.8,525.7z M578.8,597c-3.9,6.1-9.2,9.1-15.8,9.1c-8.2,0-14.8-2.7-18.6-8.2
				c-3.8-5.5-6.4-14.6-6.4-27.2v-3.5c0-11.3,2.8-19.3,6.5-24.2c3.7-4.9,10-7.3,17.9-7.3c6.8,0,12.3,2.9,16.3,8.7
				c3.9,5.8,6,14.5,6,26.1C584.7,582.1,582.7,590.9,578.8,597z"/>
			<path fill="#CC0099" d="M695,606.2c6.2,0,11.9-0.8,17.2-2.5c5.3-1.6,8.8-4.2,15.8-7.8v27.6c-7,3.3-10.4,5.6-15.8,6.9
				c-5.3,1.3-12,1.9-20.1,1.9c-36.7,0-55.1-20.2-55.1-60.5c0-20.1,5-35.4,15-46c10-10.6,24.3-15.9,43-15.9c13.7,0,25.9,2.7,36.7,8
				l-9.5,24.9c-5.1-2-9.8-3.7-14.2-5c-4.4-1.3-8.7-2-13.1-2c-16.8,0-25.1,11.9-25.1,35.7C669.9,594.6,678.2,606.2,695,606.2z"/>
			<path fill="#CC0099" d="M452.4,519.2c-8.4-6.9-17.7-10.3-33.6-10.3c-16.5,0-31.6,3.6-45.2,10.7l10.5,21.7
				c12.7-5.7,23.1-8.6,32.6-8.6c12.3,0,17.3,6,17.3,18v5.2l-19.4,0.7c-17.7,0.6-30,4-38.7,9.9c-8.8,5.9-13.1,15.3-13.1,27.8
				c0,12,3.3,21.4,9.8,27.9c6.5,6.5,15.5,10.1,26.8,10.1c9.2,0,16.7-0.7,22.4-3.3c5.7-2.6,11.3-5.8,16.7-12.8h0.8l6.2,14H462v-79.4
				C462,536.6,460.8,526.1,452.4,519.2z M434,584.3c0,7.1-1.2,12.8-5.6,17.1c-4.5,4.3-9.5,6.4-17,6.4c-10.4,0-15.5-4.5-15.5-13.6
				c0-6.3,2.3-11.1,6.9-14.1c4.6-3.1,10.5-4.8,19.8-5.1l11.4-0.4V584.3z"/>
			<path fill="#CC0099" d="M771.8,442.1c5.6,0,10.2,4.6,10.2,10.2v201.6c0,5.6-4.6,10.2-10.2,10.2H340.9c-5.6,0-10.2-4.6-10.2-10.2
				V452.3c0-5.6,4.6-10.2,10.2-10.2H771.8 M771.8,416.7H340.9c-19.6,0-35.6,16-35.6,35.6v201.6c0,19.6,16,35.6,35.6,35.6h430.9
				c19.6,0,35.6-16,35.6-35.6V452.3C807.4,432.7,791.4,416.7,771.8,416.7L771.8,416.7z"/>
		</g>
		<path fill="#CC0099" d="M319.4,596.7H274V574h45.4V596.7z M237.7,596.7h-24.6c-11.3,0-20.4-9.2-20.4-20.4v-6.5h22.7v4.2h22.4
			V596.7z M215.3,524.4h-22.7V479h22.7V524.4z M215.3,433.6h-22.7v-45.4h22.7V433.6z M672.3,426h-22.7v-45.4h22.7V426z M215.3,342.8
			h-22.7v-11.9c0-11.3,9.2-20.4,20.4-20.4h19.2v22.7h-16.9V342.8z M649.4,333.1h-16.9v-22.7h19.2c11.3,0,20.4,9.2,20.4,20.4v11.9
			h-22.7V333.1z M595.4,333.1H550v-22.7h45.4V333.1z M504.6,333.1h-45.4v-22.7h45.4V333.1z M413.8,333.1h-45.4v-22.7h45.4V333.1z
			 M323,333.1h-45.4v-22.7H323V333.1z"/>
	</g>
</g>
<g id="multichoice" display="none">
	<path display="inline" fill="#CC0099" d="M812,330c0,15.5-12.5,28-28,28H339c-15.5,0-28-12.5-28-28v-20c0-15.5,12.5-28,28-28h445
		c15.5,0,28,12.5,28,28V330z"/>
	<g display="inline">
		<path fill="#FFFFFF" d="M210.9,362.7c-23.4,0-42.5-19.1-42.5-42.5s19.1-42.5,42.5-42.5s42.5,19.1,42.5,42.5
			S234.4,362.7,210.9,362.7z"/>
		<path fill="#CC0099" d="M210.9,285.2c19.3,0,35,15.7,35,35s-15.7,35-35,35s-35-15.7-35-35S191.6,285.2,210.9,285.2 M210.9,270.2
			c-27.6,0-50,22.4-50,50s22.4,50,50,50s50-22.4,50-50S238.5,270.2,210.9,270.2L210.9,270.2z"/>
	</g>
	<path display="inline" fill="#CC0099" d="M812,503c0,15.5-12.5,28-28,28H339c-15.5,0-28-12.5-28-28v-20c0-15.5,12.5-28,28-28h445
		c15.5,0,28,12.5,28,28V503z"/>
	<circle display="inline" fill="#CC0099" cx="210.9" cy="493" r="50"/>
	<path display="inline" fill="#CC0099" d="M812,676c0,15.5-12.5,28-28,28H339c-15.5,0-28-12.5-28-28v-20c0-15.5,12.5-28,28-28h445
		c15.5,0,28,12.5,28,28V676z"/>
	<g display="inline">
		<path fill="#FFFFFF" d="M210.9,708.3c-23.4,0-42.5-19.1-42.5-42.5s19.1-42.5,42.5-42.5s42.5,19.1,42.5,42.5
			S234.4,708.3,210.9,708.3z"/>
		<path fill="#CC0099" d="M210.9,630.8c19.3,0,35,15.7,35,35s-15.7,35-35,35s-35-15.7-35-35S191.6,630.8,210.9,630.8 M210.9,615.8
			c-27.6,0-50,22.4-50,50c0,27.6,22.4,50,50,50s50-22.4,50-50C260.9,638.2,238.5,615.8,210.9,615.8L210.9,615.8z"/>
	</g>
</g>
<g id="summary">
	<g>
		<g>
			<path fill="#CC0099" d="M312.7,642.2L238.8,716l-13.9,13.9c-1.8,1.8-4.4,2.9-6.9,2.9c-2.6,0-5.1-1-6.9-2.9L197.2,716l-36.9-36.9
				c-1.8-1.8-2.9-4.4-2.9-6.9c0-2.5,1-5.1,2.9-6.9l13.9-13.9c1.8-1.8,4.4-2.9,6.9-2.9c2.6,0,5.1,1,6.9,2.9l30,30.1l66.9-67
				c1.8-1.8,4.4-2.9,6.9-2.9c2.6,0,5.1,1,6.9,2.9l13.9,13.9c1.8,1.8,2.9,4.4,2.9,6.9C315.6,637.8,314.5,640.3,312.7,642.2z"/>
		</g>
		<g>
			<path fill="#CC0099" d="M312.7,469.9l-73.9,73.9l-13.9,13.9c-1.8,1.8-4.4,2.9-6.9,2.9c-2.6,0-5.1-1-6.9-2.9l-13.9-13.9
				l-36.9-36.9c-1.8-1.8-2.9-4.4-2.9-6.9c0-2.5,1-5.1,2.9-6.9l13.9-13.9c1.8-1.8,4.4-2.9,6.9-2.9c2.6,0,5.1,1,6.9,2.9l30,30.1
				l66.9-67c1.8-1.8,4.4-2.9,6.9-2.9c2.6,0,5.1,1,6.9,2.9l13.9,13.9c1.8,1.8,2.9,4.4,2.9,6.9C315.6,465.6,314.5,468.1,312.7,469.9z"
				/>
		</g>
		<g>
			<path fill="#CC0099" d="M312.7,297.8l-73.9,73.9l-13.9,13.9c-1.8,1.8-4.4,2.9-6.9,2.9c-2.6,0-5.1-1-6.9-2.9l-13.9-13.9
				l-36.9-36.9c-1.8-1.8-2.9-4.4-2.9-6.9c0-2.5,1-5.1,2.9-6.9l13.9-13.9c1.8-1.8,4.4-2.9,6.9-2.9c2.6,0,5.1,1,6.9,2.9l30,30.1
				l66.9-67c1.8-1.8,4.4-2.9,6.9-2.9c2.6,0,5.1,1,6.9,2.9l13.9,13.9c1.8,1.8,2.9,4.4,2.9,6.9C315.6,293.4,314.5,296,312.7,297.8z"/>
		</g>
		<path fill="#CC0099" d="M843,339c0,15.5-12.5,28-28,28H370c-15.5,0-28-12.5-28-28v-20c0-15.5,12.5-28,28-28h445
			c15.5,0,28,12.5,28,28V339z"/>
		<path fill="#CC0099" d="M843,512c0,15.5-12.5,28-28,28H370c-15.5,0-28-12.5-28-28v-20c0-15.5,12.5-28,28-28h445
			c15.5,0,28,12.5,28,28V512z"/>
		<path fill="#CC0099" d="M843,685c0,15.5-12.5,28-28,28H370c-15.5,0-28-12.5-28-28v-20c0-15.5,12.5-28,28-28h445
			c15.5,0,28,12.5,28,28V685z"/>
	</g>
</g>
<g id="single_choice" display="none">
	<g display="inline">
		<g>
			<g>
				<path fill="#CC0099" d="M381.4,278l-82.3,82.3l-15.5,15.5c-2,2-4.9,3.2-7.7,3.2c-2.8,0-5.7-1.1-7.7-3.2l-15.5-15.5l-41.1-41.1
					c-2-2.1-3.2-4.9-3.2-7.7c0-2.8,1.1-5.7,3.2-7.7l15.5-15.5c2-2,4.9-3.2,7.7-3.2c2.8,0,5.7,1.1,7.7,3.2l33.4,33.5l74.6-74.7
					c2-2,4.9-3.2,7.7-3.2c2.8,0,5.7,1.1,7.7,3.2l15.5,15.5c2,2,3.2,4.9,3.2,7.7C384.6,273.1,383.4,275.9,381.4,278z"/>
			</g>
			<path fill="#CC0099" d="M802,319.2c0,10.9-8.8,19.8-19.8,19.8H447.8c-10.9,0-19.8-8.8-19.8-19.8v-14.5c0-10.9,8.8-19.8,19.8-19.8
				h334.5c10.9,0,19.8,8.8,19.8,19.8V319.2z"/>
		</g>
		<g>
			<path fill="#CC0099" d="M802,505.2c0,10.9-8.8,19.8-19.8,19.8H447.8c-10.9,0-19.8-8.8-19.8-19.8v-14.5c0-10.9,8.8-19.8,19.8-19.8
				h334.5c10.9,0,19.8,8.8,19.8,19.8V505.2z"/>
			<g>
				<path fill="#CC0099" d="M354.6,549.7L338.3,566c-2.2,2.2-5.2,3.4-8.1,3.4c-3,0-6-1.2-8.1-3.4l-35.2-35.2L251.6,566
					c-2.2,2.2-5.2,3.4-8.1,3.4c-3,0-6-1.2-8.1-3.4L219,549.7c-2.2-2.2-3.4-5.2-3.4-8.1c0-3,1.2-6,3.4-8.1l35.2-35.2L219,463
					c-2.2-2.2-3.4-5.2-3.4-8.1c0-3,1.2-6,3.4-8.1l16.3-16.3c2.2-2.2,5.2-3.4,8.1-3.4c3,0,6,1.2,8.1,3.4l35.2,35.2l35.2-35.2
					c2.2-2.2,5.2-3.4,8.1-3.4c3,0,6,1.2,8.1,3.4l16.3,16.3c2.2,2.2,3.4,5.2,3.4,8.1c0,3-1.2,6-3.4,8.1l-35.2,35.2l35.2,35.2
					c2.2,2.2,3.4,5.2,3.4,8.1C358,544.5,356.8,547.5,354.6,549.7z"/>
			</g>
		</g>
		<g>
			<path fill="#CC0099" d="M802,692.2c0,10.9-8.8,19.8-19.8,19.8H447.8c-10.9,0-19.8-8.8-19.8-19.8v-14.5c0-10.9,8.8-19.8,19.8-19.8
				h334.5c10.9,0,19.8,8.8,19.8,19.8V692.2z"/>
			<g>
				<path fill="#CC0099" d="M354.6,736.5l-16.3,16.3c-2.2,2.2-5.2,3.4-8.1,3.4c-3,0-6-1.2-8.1-3.4l-35.2-35.2l-35.2,35.2
					c-2.2,2.2-5.2,3.4-8.1,3.4c-3,0-6-1.2-8.1-3.4L219,736.5c-2.2-2.2-3.4-5.2-3.4-8.1c0-3,1.2-6,3.4-8.1l35.2-35.2L219,649.7
					c-2.2-2.2-3.4-5.2-3.4-8.1c0-3,1.2-6,3.4-8.1l16.3-16.3c2.2-2.2,5.2-3.4,8.1-3.4c3,0,6,1.2,8.1,3.4l35.2,35.2l35.2-35.2
					c2.2-2.2,5.2-3.4,8.1-3.4c3,0,6,1.2,8.1,3.4l16.3,16.3c2.2,2.2,3.4,5.2,3.4,8.1c0,3-1.2,6-3.4,8.1l-35.2,35.2l35.2,35.2
					c2.2,2.2,3.4,5.2,3.4,8.1C358,731.3,356.8,734.3,354.6,736.5z"/>
			</g>
		</g>
	</g>
</g>
<g id="mark_the_words" display="none">
	<g display="inline">
		<g>
			<path fill="#CC0099" d="M514.2,477c-11,0-18.1,3.4-23.1,10.1c-5,6.7-7,17.9-7,33.4v4.8c0,17.5,1.7,30,6.9,37.5
				c5.2,7.6,13,11.3,24.2,11.3c9.1,0,16.1-4.2,21.5-12.6c5.4-8.4,8-20.6,8-36.6c0-16-2.8-28-8.2-36C531,481,523.6,477,514.2,477z"/>
			<path fill="#CC0099" d="M601.1,335h-188c-32.1,0-59.2,26.6-59.2,58.7V597c0,32.1,27.1,68,59.2,68h188c32.1,0,57.9-26.2,57.9-58.3
				v-213C659,361.6,633.2,335,601.1,335z M573,588c-11.2,14.7-26.4,21.5-45.7,21.5c-19.1,0-34.1-2.4-44.9-21.4h-3.1l-7.4,19H436V384
				h48v49.5c0,6.7-2.3,17.5-3.4,27.5h1.7c10.4-10,25.7-21.8,46.1-21.8c19.2,0,34.2,8.7,45.1,23.6c10.9,15,16.3,36.1,16.3,62.2
				C589.8,551.9,584.2,573.2,573,588z"/>
		</g>
		<path fill="#CC0099" d="M772.7,572.1c8.4,0,15.9-1.1,23.1-3.4c7.2-2.2,12.2-5.8,21.2-10.5v37.5c-9,4.5-13.9,7.6-21.1,9.3
			c-7.2,1.7-16.2,2.6-27.2,2.6c-50,0-74.9-27.4-74.9-82.3c0-27.3,6.8-48.1,20.4-62.5c13.6-14.4,33.1-21.6,58.5-21.6
			c18.6,0,35.2,3.6,50,10.9l-12.9,33.9c-6.9-2.8-13.3-5.1-19.3-6.8c-5.9-1.8-11.9-2.7-17.8-2.7c-22.8,0-34.2,16.2-34.2,48.5
			C738.6,556.4,749.9,572.1,772.7,572.1z"/>
		<path fill="#CC0099" d="M298.5,443.6c-11.5-9.4-23.8-14.1-45.3-14.1c-22.5,0-42.8,4.8-61.3,14.5l14.4,29.6
			c17.3-7.8,31.4-11.6,44.2-11.6c16.7,0,23.5,8.1,23.5,24.4v7l-26.3,0.9c-24,0.9-40.7,5.4-52.7,13.5c-11.9,8.1-17.7,20.8-17.7,37.8
			c0,16.3,4.5,29.1,13.4,37.9c8.8,8.8,21,13.7,36.4,13.7c12.5,0,22.7-1.1,30.5-4.7c7.8-3.6,15.4-8.6,22.8-17.6h1.2l8.5,18H311V486.4
			C311,467.2,310,453,298.5,443.6z M274,532.2c0,9.7-1.5,17.4-7.5,23.3c-6.1,5.8-12.9,8.8-23.1,8.8c-14.2,0-21.1-6.2-21.1-18.5
			c0-8.6,3.2-15,9.4-19.2c6.2-4.2,14.2-6.5,26.9-6.9L274,519V532.2z"/>
	</g>
</g>
<g id="Layer_20" display="none">
	<g id="internal_link" display="inline">
		<path fill="#CC0099" d="M777.7,464.8l-104.3,138H727c0,0-23.2,154.2-178.4,180.3c0-215.7,0-318.2,0-318.2H685v-46.4H548.6V349
			c42.7-18.6,72.5-61.1,72.5-110.4c0-66.4-54-120.4-120.4-120.4s-120.4,54-120.4,120.4c0,48.9,29.2,91,71.1,109.8v70.1H315v46.4
			h136.4c0,0,0,102.6,0,318.2C296.2,757,273,602.8,273,602.8h53.7l-104.3-138l-95.9,140.9h50.3c61.5,267.8,278.8,277,323.2,276.1
			c44.4,1,261.7-8.1,323.2-276.1h50.3L777.7,464.8z M500.7,176.2c34.4,0,62.4,28,62.4,62.4s-28,62.4-62.4,62.4s-62.4-28-62.4-62.4
			S466.3,176.2,500.7,176.2z"/>
	</g>
</g>
<g id="Layer_21" display="none">
	<g display="inline">
		<path fill="#CC0099" d="M656.3,419.9c0.3,3.5,0.3,7,0.3,10.5c0,106.6-81.1,229.4-229.4,229.4c-45.7,0-88.1-13.2-123.8-36.2
			c6.5,0.7,12.7,1,19.5,1c37.7,0,72.4-12.7,100.1-34.5c-35.4-0.7-65.2-24-75.4-55.9c5,0.8,10,1.3,15.2,1.3c7.2,0,14.5-1,21.2-2.7
			c-37-7.5-64.7-39.9-64.7-79.1c0-0.2,0-0.7,0-1c10.7,6,23.2,9.7,36.4,10.2c-21.7-14.5-36-39.2-36-67.1c0-15,4-28.7,11-40.7
			c39.7,48.9,99.4,80.9,166.2,84.4c-1.2-6-2-12.2-2-18.5c0-44.4,35.9-80.6,80.6-80.6c23.2,0,44.2,9.7,58.9,25.5
			c18.2-3.5,35.7-10.2,51.2-19.5c-6,18.7-18.7,34.4-35.4,44.4c16.2-1.7,32-6.2,46.4-12.5C685.7,394.2,672,408.4,656.3,419.9z"/>
	</g>
</g>
<g id="Layer_22" display="none">
	<g display="inline">
		<path fill="#CC0099" d="M615.6,685h-46.2V538.5h48.9l7.2-53.9h-56.1v-34.4c0-16.1,6.7-27,29.9-27l31.8-0.2v-49.9
			c-7.7-0.7-23.1-2.2-43.3-2.2c-42.6,0-72.3,26-72.3,73.7v40h-53.9v53.9h53.9V685h-131c-38.3,0-69.4-31.1-69.4-69.4V384.4
			c0-38.3,31.1-69.4,69.4-69.4h231.2c38.3,0,69.4,31.1,69.4,69.4v231.2C685,653.9,653.9,685,615.6,685z"/>
	</g>
</g>
<g id="Layer_23" display="none">
	<g display="inline">
		<path fill="#CC0099" d="M721.9,437.4c0,37.2,0,74.4,0,111.6c0,0.7,0,1.4,0,2.2c0,0.9,0,1.9-0.9,2.4c-1.1,0.5-1.7-0.4-2.3-1.1
			c-10.2-10.4-20.2-21.1-30.5-31.3c-4.3-4.2-5.5-8.8-5.5-14.6c0.2-47.4,0.1-94.9,0.1-142.3c0-3.7,1.1-6.6,3.7-9.2
			c10.6-10.8,21.1-21.7,31.6-32.5c0.8-0.8,1.4-2.2,2.8-1.7c1.5,0.6,1,2.1,1,3.3C721.9,361.9,721.9,399.7,721.9,437.4z"/>
		<path fill="#CC0099" d="M660.4,455.4L660.4,455.4c0-0.5,0.1-0.9,0.1-1.4c0-38.5,0-77,0-115.5c0-1.3-0.1-2.5-0.3-3.8
			c-2.4-10.3-10.7-16.9-21.4-16.9c-73,0-146,0-219,0c-21.5,0-42.9,0-64.4,0c-12.2,0-21.5,9.3-21.6,21.4c0,8.2,0,16.5,0,24.7
			c1.3,0,2.5,0.1,3.8,0.1c85.5,0,170.9,0,256.4,0c3.3,0,6.5,0.4,9.5,1.6c7.6,3.1,11.8,8.9,13.5,16.8c0,0.4-0.1,0.7-0.1,1.1
			c0,56,0,111.9,0,167.9c0,1.1,0.1,2.2,0.1,3.3c10.8,0,21.5-0.1,32.3-0.1c3.9,0,6.5-1.7,8.3-4.9c2-3.7,2.8-7.7,2.8-12
			c0-26.7,0-53.3,0.1-80C660.6,457,660.5,456.2,660.4,455.4z"/>
		<g>
			<path fill="#CC0099" d="M607,562c-0.1-56.2,0.2-112.3-0.1-168.5c-1.7-9.8-8.2-16.7-17.9-18.8c-2.5-0.5-5-0.6-7.6-0.6
				c-75.6,0-151.2,0-226.8,0c-9.1,0-18.3,0-27.4,0c-1.4,0-2.9-0.2-4.2,0.8c-7.5,0-15,0.1-22.5,0.1c-4.1,0-8.1,0.8-11.7,3
				c-7.4,4.5-10.7,11.2-10.7,19.7c0,26.3,0,52.5,0,78.8c0,37.9,0,75.9,0,113.8c0,7.5,2.4,13.8,8.4,18.5c4.5,3.5,9.7,4.5,15.3,4.5
				c31.4,0,62.8,0,94.3,0c2,0,3.6,0.5,5.3,1.6c31.3,22,62.6,43.9,93.9,65.9c0.7,0.5,1.3,1.6,2.6,1.1c0-21.7,0-43.3,0-64.9
				c0-3.7,0-3.7,3.6-3.7c27.2,0,54.3-0.2,81.5,0.1c15.1,0.1,24.1-11.2,23.4-23.3c-0.5-8.1,0-16.3,0-24.4
				C607.1,564.6,607,563.3,607,562z M492.1,551.8c-6.9-0.2-13.8-0.1-20.6,0c-1.8,0-2.3-0.6-2.3-2.3c0.1-2.7,0-5.4,0-8.6
				c-1.9,1.5-3.5,2.8-5.2,4.1c-23.3,18.2-57.9,10.9-72.7-16.3c-5-9.2-7.3-18.9-7.6-29.3c-0.3-12.7,1.8-24.8,8.8-35.7
				c8.4-13.2,20-21.8,35.8-23.8c13.9-1.8,26.3,1.9,36.9,11.3c1.2,1.1,2.4,2.1,4,3.6c0-3.9,0.1-7,0-10.2c-0.1-1.7,0.5-2.1,2.2-2.1
				c7.1,0.1,14.1,0.1,21.2,0c2,0,2.3,0.7,2.3,2.5c-0.1,17.2,0,34.4,0,51.6c0,17.5,0,35,0,52.4C494.8,551,494.4,551.8,492.1,551.8z"
				/>
			<path fill="#CC0099" d="M443,462.5c-13.6-0.9-24.8,5.7-30,18.3c-4.9,11.8-4.6,23.9,1.2,35.4c10.4,20.8,37.2,19.9,48.7,5.6
				c5.8-7.2,7.9-15.5,8-24.5c0-4.2-0.6-8.3-1.7-12.3C465.6,472.3,455.1,463.3,443,462.5z"/>
		</g>
	</g>
</g>
</svg>
