<?xml version="1.0" encoding="utf-8"?>
<!-- Generator: Adobe Illustrator 19.2.1, SVG Export Plug-In . SVG Version: 6.00 Build 0)  -->
<svg version="1.1" xmlns="http://www.w3.org/2000/svg" xmlns:xlink="http://www.w3.org/1999/xlink" x="0px" y="0px"
	 viewBox="0 0 1000 1000" enable-background="new 0 0 1000 1000" xml:space="preserve">
<g id="twitter_user_feed" display="none">
	<g display="inline">
		<path fill="#8DB7E2" d="M336.6,708.8c0,23.9,19.3,43.2,43.2,43.2h270.3c23.9,0,42.9-19.3,42.9-43.2V291.2
			c0-23.9-19.1-43.2-42.9-43.2H379.8c-23.9,0-43.2,19.3-43.2,43.2"/>
	</g>
	<g display="inline">
		<line fill="none" stroke="#FFFFFF" stroke-width="20" stroke-miterlimit="10" x1="405" y1="359" x2="615" y2="359"/>
		<line fill="none" stroke="#FFFFFF" stroke-width="20" stroke-miterlimit="10" x1="405" y1="430" x2="615" y2="430"/>
		<line fill="none" stroke="#FFFFFF" stroke-width="20" stroke-miterlimit="10" x1="405" y1="500" x2="615" y2="500"/>
		<line fill="none" stroke="#FFFFFF" stroke-width="20" stroke-miterlimit="10" x1="405" y1="571" x2="615" y2="571"/>
		<line fill="none" stroke="#FFFFFF" stroke-width="20" stroke-miterlimit="10" x1="405" y1="641" x2="615" y2="641"/>
	</g>
	<path display="inline" opacity="0.2" fill="#2574A9" d="M693,712.6v-38.3L547.5,528.4L382.6,740.1c7.1,7.2,17.1,11.9,28,11.9h244
		C676.2,752,693,734.1,693,712.6z"/>
	<g display="inline">
		<g>
			<path fill="#2376C1" d="M525.2,579.2c0.2,2.5,0.2,5.1,0.2,7.6c0,77.1-58.7,166-166,166c-33.1,0-63.8-9.6-89.6-26.2
				c4.7,0.5,9.2,0.7,14.1,0.7c27.3,0,52.4-9.2,72.4-24.9c-25.7-0.5-47.2-17.3-54.6-40.5c3.6,0.6,7.2,0.9,11,0.9
				c5.2,0,10.5-0.7,15.4-2c-26.7-5.4-46.8-28.9-46.8-57.3c0-0.2,0-0.5,0-0.7c7.8,4.3,16.8,7,26.4,7.4c-15.7-10.5-26-28.4-26-48.6
				c0-10.9,2.9-20.8,8-29.5c28.7,35.4,71.9,58.5,120.3,61.1c-0.9-4.3-1.4-8.8-1.4-13.4c0-32.2,26-58.4,58.4-58.4
				c16.8,0,32,7,42.6,18.4c13.2-2.5,25.8-7.4,37-14.1c-4.3,13.6-13.6,24.9-25.7,32.2c11.7-1.3,23.1-4.5,33.6-9
				C546.5,560.6,536.6,570.9,525.2,579.2z"/>
		</g>
	</g>
</g>
<g id="timeline" display="none">
	<g display="inline">
		<rect x="268.1" y="558.2" fill="#62A6EF" width="443.1" height="17.7"/>
		<g>
			<g opacity="0.15">
				<polygon points="268,420 268,530 371.9,530 390,544.5 390,529.9 390,512.6 390,420 				"/>
			</g>
			<g>
				<polygon fill="#36C670" points="268,413 268,523 371.9,523 390,537.5 390,522.9 390,505.6 390,413 				"/>
			</g>
		</g>
		<g>
			<g opacity="0.15">
				<polygon points="421,420 421,530 525.2,530 544,544.5 544,529.9 544,512.6 544,420 				"/>
			</g>
			<g>
				<polygon fill="#D85D6F" points="421,413 421,523 525.2,523 544,537.5 544,522.9 544,505.6 544,413 				"/>
			</g>
		</g>
		<g>
			<g opacity="0.15">
				<polygon points="732,420 732,530 628.1,530 609,544.5 609,529.9 609,512.6 609,420 				"/>
			</g>
			<g>
				<polygon fill="#F4C84D" points="732,413 732,523 628.1,523 609,537.5 609,522.9 609,505.6 609,413 				"/>
			</g>
		</g>
		<circle fill="#36C670" cx="390.5" cy="567.1" r="19.9"/>
		<circle fill="#D85D6F" cx="543.8" cy="567.1" r="19.9"/>
		<circle fill="#F4C84D" cx="609.5" cy="567.1" r="19.9"/>
		<polygon fill="#62A6EF" points="702,547.2 731.4,567.1 702,586.9 		"/>
	</g>
</g>
<g id="summary_copy" display="none">
	<circle display="inline" fill="#B28DE2" cx="500" cy="500" r="492"/>
	<g display="inline">
		<g opacity="0.15">
			<rect x="210" y="258.1" width="610" height="513.7"/>
		</g>
		<g>
			<rect x="195" y="243.1" fill="#FFFFFF" width="610" height="513.7"/>
		</g>
	</g>
	<rect x="195" y="369.6" display="inline" fill="#DDDDDD" width="610" height="10"/>
	<rect x="195" y="495.4" display="inline" fill="#DDDDDD" width="610" height="10"/>
	<rect x="195" y="621.1" display="inline" fill="#DDDDDD" width="610" height="10"/>
	<g display="inline">
		<g opacity="0.1">
			<path fill="#231F20" d="M774.5,423.6L727,471.1l-8.9,8.9c-1.2,1.2-2.8,1.8-4.5,1.8c-1.6,0-3.3-0.7-4.5-1.8l-8.9-8.9l-23.8-23.8
				c-1.2-1.2-1.8-2.8-1.8-4.5s0.7-3.3,1.8-4.5l8.9-8.9c1.2-1.2,2.8-1.8,4.5-1.8c1.6,0,3.3,0.7,4.5,1.8l19.3,19.4l43.1-43.1
				c1.2-1.2,2.8-1.8,4.5-1.8c1.6,0,3.3,0.7,4.5,1.8l8.9,8.9c1.2,1.2,1.8,2.8,1.8,4.5C776.4,420.8,775.7,422.4,774.5,423.6z"/>
		</g>
		<g>
			<g>
				<path fill="#6CD389" d="M764.5,413.6L717,461.1l-8.9,8.9c-1.2,1.2-2.8,1.8-4.5,1.8c-1.6,0-3.3-0.7-4.5-1.8l-8.9-8.9l-23.8-23.8
					c-1.2-1.2-1.8-2.8-1.8-4.5s0.7-3.3,1.8-4.5l8.9-8.9c1.2-1.2,2.8-1.8,4.5-1.8c1.6,0,3.3,0.7,4.5,1.8l19.3,19.4l43.1-43.1
					c1.2-1.2,2.8-1.8,4.5-1.8c1.6,0,3.3,0.7,4.5,1.8l8.9,8.9c1.2,1.2,1.8,2.8,1.8,4.5C766.4,410.8,765.7,412.4,764.5,413.6z"/>
			</g>
		</g>
	</g>
	<rect x="245" y="415.9" display="inline" fill="#8DB7E2" width="316" height="40"/>
	<g display="inline">
		<g opacity="0.1">
			<path fill="#231F20" d="M774.5,552.6L727,600.1l-8.9,8.9c-1.2,1.2-2.8,1.8-4.5,1.8c-1.6,0-3.3-0.7-4.5-1.8l-8.9-8.9l-23.8-23.8
				c-1.2-1.2-1.8-2.8-1.8-4.5s0.7-3.3,1.8-4.5l8.9-8.9c1.2-1.2,2.8-1.8,4.5-1.8c1.6,0,3.3,0.7,4.5,1.8l19.3,19.4l43.1-43.1
				c1.2-1.2,2.8-1.8,4.5-1.8c1.6,0,3.3,0.7,4.5,1.8l8.9,8.9c1.2,1.2,1.8,2.8,1.8,4.5S775.7,551.4,774.5,552.6z"/>
		</g>
		<g>
			<g>
				<path fill="#6CD389" d="M764.5,542.6L717,590.1l-8.9,8.9c-1.2,1.2-2.8,1.8-4.5,1.8c-1.6,0-3.3-0.7-4.5-1.8l-8.9-8.9l-23.8-23.8
					c-1.2-1.2-1.8-2.8-1.8-4.5s0.7-3.3,1.8-4.5l8.9-8.9c1.2-1.2,2.8-1.8,4.5-1.8c1.6,0,3.3,0.7,4.5,1.8l19.3,19.4l43.1-43.1
					c1.2-1.2,2.8-1.8,4.5-1.8c1.6,0,3.3,0.7,4.5,1.8l8.9,8.9c1.2,1.2,1.8,2.8,1.8,4.5S765.7,541.4,764.5,542.6z"/>
			</g>
		</g>
	</g>
	<rect x="245" y="544.9" display="inline" fill="#8DB7E2" width="206" height="40"/>
	<g display="inline">
		<g opacity="0.1">
			<path fill="#231F20" d="M774.5,680.8L727,728.3l-8.9,8.9c-1.2,1.2-2.8,1.8-4.5,1.8c-1.6,0-3.3-0.7-4.5-1.8l-8.9-8.9l-23.8-23.8
				c-1.2-1.2-1.8-2.8-1.8-4.5s0.7-3.3,1.8-4.5l8.9-8.9c1.2-1.2,2.8-1.8,4.5-1.8c1.6,0,3.3,0.7,4.5,1.8l19.3,19.4l43.1-43.1
				c1.2-1.2,2.8-1.8,4.5-1.8c1.6,0,3.3,0.7,4.5,1.8l8.9,8.9c1.2,1.2,1.8,2.8,1.8,4.5C776.4,678,775.7,679.6,774.5,680.8z"/>
		</g>
		<g>
			<g>
				<path fill="#6CD389" d="M764.5,670.8L717,718.3l-8.9,8.9c-1.2,1.2-2.8,1.8-4.5,1.8c-1.6,0-3.3-0.7-4.5-1.8l-8.9-8.9l-23.8-23.8
					c-1.2-1.2-1.8-2.8-1.8-4.5s0.7-3.3,1.8-4.5l8.9-8.9c1.2-1.2,2.8-1.8,4.5-1.8c1.6,0,3.3,0.7,4.5,1.8l19.3,19.4l43.1-43.1
					c1.2-1.2,2.8-1.8,4.5-1.8c1.6,0,3.3,0.7,4.5,1.8l8.9,8.9c1.2,1.2,1.8,2.8,1.8,4.5C766.4,668,765.7,669.6,764.5,670.8z"/>
			</g>
		</g>
	</g>
	<rect x="245" y="673.1" display="inline" fill="#8DB7E2" width="292" height="40"/>
	<circle display="inline" fill="#E29696" cx="633.8" cy="305.8" r="31.2"/>
	<circle display="inline" fill="#6CD389" cx="733.8" cy="305.8" r="31.2"/>
</g>
<g id="single_choice_set_copy" display="none">
	<circle display="inline" fill="#FC7E8A" cx="500" cy="500" r="492"/>
	<g display="inline">
		<g opacity="0.15">
			<rect x="206.9" y="260.9" width="626.1" height="508"/>
			<rect x="293.2" y="495.5" width="359.3" height="37"/>
			<path d="M783.7,427.2H266.3c-18.6,0-33.7-15.2-33.7-33.7v-34.7c0-18.6,15.2-33.7,33.7-33.7h517.4c18.6,0,33.7,15.2,33.7,33.7
				v34.7C817.4,412.1,802.3,427.2,783.7,427.2z"/>
			<path d="M778.7,417.2H261.3c-18.6,0-33.7-15.2-33.7-33.7v-34.7c0-18.6,15.2-33.7,33.7-33.7h517.4c18.6,0,33.7,15.2,33.7,33.7
				v34.7C812.4,402.1,797.3,417.2,778.7,417.2z"/>
			<rect x="263.6" y="347.5" width="416.3" height="40.4"/>
			<path d="M771.8,351.4l-29.4,29.4l-5.5,5.5c-0.7,0.7-1.7,1.1-2.8,1.1c-1,0-2-0.4-2.8-1.1l-5.5-5.5L711,366.1
				c-0.7-0.7-1.1-1.7-1.1-2.8c0-1,0.4-2,1.1-2.8l5.5-5.5c0.7-0.7,1.7-1.1,2.8-1.1c1,0,2,0.4,2.8,1.1l12,12l26.7-26.7
				c0.7-0.7,1.7-1.1,2.8-1.1c1,0,2,0.4,2.8,1.1l5.5,5.5c0.7,0.7,1.1,1.7,1.1,2.8C772.9,349.6,772.5,350.7,771.8,351.4z"/>
			<rect x="206.9" y="753.8" width="626.1" height="25.2"/>
			<rect x="206.9" y="753.8" width="189.7" height="25.2"/>
			<path d="M749.6,569.9H290.4c-18.6,0-33.7-15.2-33.7-33.7v-26.1c0-18.6,15.2-33.7,33.7-33.7h459.2c18.6,0,33.7,15.2,33.7,33.7
				v26.1C783.3,554.7,768.1,569.9,749.6,569.9z"/>
			<rect x="287.7" y="506.3" width="265.2" height="37"/>
			<path d="M749.6,559.9H290.4c-18.6,0-33.7-15.2-33.7-33.7v-26.1c0-18.6,15.2-33.7,33.7-33.7h459.2c18.6,0,33.7,15.2,33.7,33.7
				v26.1C783.3,544.7,768.1,559.9,749.6,559.9z"/>
			<rect x="287.7" y="496.3" width="265.2" height="37"/>
			<path d="M749.6,709.7H290.4c-18.6,0-33.7-15.2-33.7-33.7v-26.1c0-18.6,15.2-33.7,33.7-33.7h459.2c18.6,0,33.7,15.2,33.7,33.7V676
				C783.3,694.6,768.1,709.7,749.6,709.7z"/>
			<rect x="287.7" y="646.1" width="349.3" height="37"/>
			<path d="M749.6,699.7H290.4c-18.6,0-33.7-15.2-33.7-33.7v-26.1c0-18.6,15.2-33.7,33.7-33.7h459.2c18.6,0,33.7,15.2,33.7,33.7V666
				C783.3,684.6,768.1,699.7,749.6,699.7z"/>
			<rect x="287.7" y="636.1" width="349.3" height="37"/>
		</g>
		<g>
			<g>
				<rect x="186.9" y="240.9" fill="#FFFFFF" width="626.1" height="508"/>
				<g>
					<rect x="273.2" y="475.5" fill="#8DB7E2" width="359.3" height="37"/>
				</g>
				<g>
					<g>
						<g opacity="0.15">
							<path fill="#231F20" d="M763.7,407.2H246.3c-18.6,0-33.7-15.2-33.7-33.7v-34.7c0-18.6,15.2-33.7,33.7-33.7h517.4
								c18.6,0,33.7,15.2,33.7,33.7v34.7C797.4,392.1,782.3,407.2,763.7,407.2z"/>
						</g>
						<g>
							<path fill="#6CD389" d="M758.7,397.2H241.3c-18.6,0-33.7-15.2-33.7-33.7v-34.7c0-18.6,15.2-33.7,33.7-33.7h517.4
								c18.6,0,33.7,15.2,33.7,33.7v34.7C792.4,382.1,777.3,397.2,758.7,397.2z"/>
						</g>
					</g>
					<g>
						<rect x="243.6" y="327.5" fill="#239630" width="416.3" height="40.4"/>
					</g>
					<g>
						<g>
							<path fill="#239630" d="M751.8,331.4l-29.4,29.4l-5.5,5.5c-0.7,0.7-1.7,1.1-2.8,1.1c-1,0-2-0.4-2.8-1.1l-5.5-5.5L691,346.1
								c-0.7-0.7-1.1-1.7-1.1-2.8c0-1,0.4-2,1.1-2.8l5.5-5.5c0.7-0.7,1.7-1.1,2.8-1.1c1,0,2,0.4,2.8,1.1l12,12l26.7-26.7
								c0.7-0.7,1.7-1.1,2.8-1.1c1,0,2,0.4,2.8,1.1l5.5,5.5c0.7,0.7,1.1,1.7,1.1,2.8C752.9,329.6,752.5,330.7,751.8,331.4z"/>
						</g>
					</g>
				</g>
				<rect x="186.9" y="733.8" fill="#686868" width="626.1" height="25.2"/>
				<rect x="186.9" y="733.8" fill="#1D9EFF" width="189.7" height="25.2"/>
				<g>
					<g opacity="0.2">
						<path fill="#231F20" d="M729.6,549.9H270.4c-18.6,0-33.7-15.2-33.7-33.7v-26.1c0-18.6,15.2-33.7,33.7-33.7h459.2
							c18.6,0,33.7,15.2,33.7,33.7v26.1C763.3,534.7,748.1,549.9,729.6,549.9z"/>
						<rect x="267.7" y="486.3" fill="#231F20" width="265.2" height="37"/>
					</g>
					<g>
						<g>
							<path fill="#DDDDDD" d="M729.6,539.9H270.4c-18.6,0-33.7-15.2-33.7-33.7v-26.1c0-18.6,15.2-33.7,33.7-33.7h459.2
								c18.6,0,33.7,15.2,33.7,33.7v26.1C763.3,524.7,748.1,539.9,729.6,539.9z"/>
							<g>
								<rect x="267.7" y="476.3" fill="#8DB7E2" width="265.2" height="37"/>
							</g>
						</g>
					</g>
				</g>
				<g>
					<g opacity="0.2">
						<path fill="#231F20" d="M729.6,689.7H270.4c-18.6,0-33.7-15.2-33.7-33.7v-26.1c0-18.6,15.2-33.7,33.7-33.7h459.2
							c18.6,0,33.7,15.2,33.7,33.7V656C763.3,674.6,748.1,689.7,729.6,689.7z"/>
						<rect x="267.7" y="626.1" fill="#231F20" width="349.3" height="37"/>
					</g>
					<g>
						<g>
							<path fill="#DDDDDD" d="M729.6,679.7H270.4c-18.6,0-33.7-15.2-33.7-33.7v-26.1c0-18.6,15.2-33.7,33.7-33.7h459.2
								c18.6,0,33.7,15.2,33.7,33.7V646C763.3,664.6,748.1,679.7,729.6,679.7z"/>
							<g>
								<rect x="267.7" y="616.1" fill="#8DB7E2" width="349.3" height="37"/>
							</g>
						</g>
					</g>
				</g>
			</g>
		</g>
	</g>
</g>
<g id="question_set" display="none">
	<circle display="inline" fill="#56B5EF" cx="500" cy="500" r="492"/>
	<g display="inline">
		<g>
			<g opacity="0.15">
				<rect x="293.3" y="310.8" width="531.2" height="496.2"/>
			</g>
			<g>
				<rect x="273.3" y="290.8" fill="#FFFFFF" width="531.2" height="496.2"/>
			</g>
		</g>
		<g>
			<g opacity="0.15">
				<rect x="254.4" y="271.9" width="531.2" height="496.2"/>
			</g>
			<g>
				<rect x="234.4" y="251.9" fill="#FFFFFF" width="531.2" height="496.2"/>
			</g>
		</g>
		<g>
			<g opacity="0.15">
				<rect x="215.5" y="233" width="531.2" height="496.2"/>
			</g>
			<g>
				<rect x="195.5" y="213" fill="#FFFFFF" width="531.2" height="496.2"/>
			</g>
		</g>
		<g>
			<g opacity="0.2">
				<path fill="#231F20" d="M672.3,468.2H259.2c-17.3,0-31.5-14.2-31.5-31.5v-7.6c0-17.3,14.2-31.5,31.5-31.5h413.1
					c17.3,0,31.5,14.2,31.5,31.5v7.6C703.8,454,689.6,468.2,672.3,468.2z"/>
				<rect x="256" y="419.5" fill="#231F20" width="399.9" height="27.9"/>
			</g>
			<g>
				<g>
					<path fill="#DDDDDD" d="M672.3,458.2H259.2c-17.3,0-31.5-14.2-31.5-31.5v-7.6c0-17.3,14.2-31.5,31.5-31.5h413.1
						c17.3,0,31.5,14.2,31.5,31.5v7.6C703.8,444,689.6,458.2,672.3,458.2z"/>
					<g>
						<rect x="256" y="409.5" fill="#8DB7E2" width="399.9" height="27.9"/>
					</g>
				</g>
			</g>
		</g>
		<g>
			<g opacity="0.2">
				<path fill="#231F20" d="M672.3,573H259.2c-17.3,0-31.5-14.2-31.5-31.5v-7.6c0-17.3,14.2-31.5,31.5-31.5h413.1
					c17.3,0,31.5,14.2,31.5,31.5v7.6C703.8,558.8,689.6,573,672.3,573z"/>
				<rect x="256" y="524.3" fill="#231F20" width="329.9" height="27.9"/>
			</g>
			<g>
				<g>
					<path fill="#DDDDDD" d="M672.3,563H259.2c-17.3,0-31.5-14.2-31.5-31.5v-7.6c0-17.3,14.2-31.5,31.5-31.5h413.1
						c17.3,0,31.5,14.2,31.5,31.5v7.6C703.8,548.8,689.6,563,672.3,563z"/>
					<g>
						<rect x="256" y="514.3" fill="#8DB7E2" width="329.9" height="27.9"/>
					</g>
				</g>
			</g>
		</g>
		<g>
			<g opacity="0.2">
				<path fill="#231F20" d="M672.3,677.7H259.2c-17.3,0-31.5-14.2-31.5-31.5v-7.6c0-17.3,14.2-31.5,31.5-31.5h413.1
					c17.3,0,31.5,14.2,31.5,31.5v7.6C703.8,663.6,689.6,677.7,672.3,677.7z"/>
				<rect x="256" y="629" fill="#231F20" width="372.4" height="27.9"/>
			</g>
			<g>
				<g>
					<path fill="#DDDDDD" d="M672.3,667.7H259.2c-17.3,0-31.5-14.2-31.5-31.5v-7.6c0-17.3,14.2-31.5,31.5-31.5h413.1
						c17.3,0,31.5,14.2,31.5,31.5v7.6C703.8,653.6,689.6,667.7,672.3,667.7z"/>
					<g>
						<rect x="256" y="619" fill="#8DB7E2" width="372.4" height="27.9"/>
					</g>
				</g>
			</g>
		</g>
		<circle fill="#8DB7E2" cx="464.8" cy="300.6" r="63.6"/>
		<path fill="#FFFFFF" d="M456.9,315.8v-3.5c0-3,0.6-5.6,1.9-7.9c1.3-2.2,3.6-4.6,7.1-7.1c3.3-2.4,5.5-4.3,6.5-5.7
			c1.1-1.5,1.6-3.1,1.6-4.9c0-2-0.8-3.6-2.3-4.7c-1.5-1.1-3.6-1.6-6.3-1.6c-4.7,0-10.1,1.5-16.1,4.6l-5.1-10.3
			c7-3.9,14.4-5.9,22.3-5.9c6.5,0,11.6,1.6,15.4,4.7s5.7,7.2,5.7,12.4c0,3.5-0.8,6.4-2.4,8.9s-4.5,5.3-8.9,8.5
			c-3,2.2-4.9,3.9-5.7,5.1c-0.8,1.2-1.2,2.7-1.2,4.6v2.8H456.9z M455.4,331.9c0-2.6,0.7-4.6,2.1-6s3.5-2,6.2-2c2.6,0,4.6,0.7,6,2.1
			c1.4,1.4,2.1,3.4,2.1,5.9c0,2.5-0.7,4.4-2.2,5.9c-1.4,1.4-3.5,2.1-6,2.1c-2.6,0-4.7-0.7-6.1-2.1
			C456.1,336.4,455.4,334.4,455.4,331.9z"/>
	</g>
</g>
<g id="multiple_choice_copy" display="none">
	<circle display="inline" fill="#6BC9A7" cx="500" cy="500" r="492"/>
	<g display="inline">
		<g>
			<g opacity="0.15">
				<rect x="201" y="275" width="638" height="490"/>
			</g>
			<g>
				<rect x="181" y="255" fill="#FFFFFF" width="638" height="490"/>
			</g>
		</g>
		<g>
			<g>
				<path fill="#CDE6FC" d="M746.7,696.8H253.3c-17.3,0-31.5-14.2-31.5-31.5V620c0-17.3,14.2-31.5,31.5-31.5h493.4
					c17.3,0,31.5,14.2,31.5,31.5v45.3C778.2,682.7,764,696.8,746.7,696.8z"/>
				<rect x="318.7" y="622.1" fill="#8DB7E2" width="274.6" height="42.9"/>
				<g>
					<rect x="252.8" y="622.1" fill="#8DB7E2" width="43" height="42.9"/>
				</g>
			</g>
			<g>
				<g opacity="0.2">
					<path fill="#231F20" d="M746.7,566.4H253.3c-17.3,0-31.5-14.2-31.5-31.5v-45.3c0-17.3,14.2-31.5,31.5-31.5h493.4
						c17.3,0,31.5,14.2,31.5,31.5v45.3C778.2,552.2,764,566.4,746.7,566.4z"/>
					<rect x="318.7" y="491.6" fill="#231F20" width="139" height="42.9"/>
					<path fill="#231F20" d="M287.8,499.6v26.9h-27v-26.9H287.8 M295.8,491.6h-43v42.9h43V491.6L295.8,491.6z"/>
				</g>
				<g>
					<g>
						<path fill="#DDDDDD" d="M746.7,556.4H253.3c-17.3,0-31.5-14.2-31.5-31.5v-45.3c0-17.3,14.2-31.5,31.5-31.5h493.4
							c17.3,0,31.5,14.2,31.5,31.5v45.3C778.2,542.2,764,556.4,746.7,556.4z"/>
						<g>
							<rect x="318.7" y="481.6" fill="#8DB7E2" width="139" height="42.9"/>
						</g>
						<g>
							<path fill="#8DB7E2" d="M287.8,489.6v26.9h-27v-26.9H287.8 M295.8,481.6h-43v42.9h43V481.6L295.8,481.6z"/>
						</g>
					</g>
				</g>
			</g>
			<g>
				<path fill="#CDE6FC" d="M746.7,415.9H253.3c-17.3,0-31.5-14.2-31.5-31.5v-45.3c0-17.3,14.2-31.5,31.5-31.5h493.4
					c17.3,0,31.5,14.2,31.5,31.5v45.3C778.2,401.7,764,415.9,746.7,415.9z"/>
				<rect x="318.7" y="341.2" fill="#8DB7E2" width="343.6" height="42.9"/>
				<g>
					<rect x="252.8" y="341.2" fill="#8DB7E2" width="43" height="42.9"/>
				</g>
			</g>
			<g>
				<g>
					<path fill="#239630" d="M752,347.2l-34.1,34.1l-6.4,6.4c-0.9,0.8-2,1.3-3.2,1.3c-1.2,0-2.4-0.5-3.2-1.3l-6.4-6.4l-17-17
						c-0.8-0.8-1.3-2-1.3-3.2s0.5-2.4,1.3-3.2l6.4-6.4c0.8-0.8,2-1.3,3.2-1.3c1.2,0,2.4,0.5,3.2,1.3l13.8,13.9l30.9-30.9
						c0.9-0.8,2-1.3,3.2-1.3c1.2,0,2.4,0.5,3.2,1.3l6.4,6.4c0.8,0.8,1.3,2,1.3,3.2S752.8,346.3,752,347.2z"/>
				</g>
			</g>
			<g>
				<g>
					<path fill="#239630" d="M752,625.7l-34.1,34.1l-6.4,6.4c-0.9,0.8-2,1.3-3.2,1.3c-1.2,0-2.4-0.5-3.2-1.3l-6.4-6.4l-17-17
						c-0.8-0.8-1.3-2-1.3-3.2c0-1.2,0.5-2.4,1.3-3.2l6.4-6.4c0.8-0.8,2-1.3,3.2-1.3c1.2,0,2.4,0.5,3.2,1.3l13.8,13.9l30.9-30.9
						c0.9-0.8,2-1.3,3.2-1.3c1.2,0,2.4,0.5,3.2,1.3l6.4,6.4c0.8,0.8,1.3,2,1.3,3.2C753.3,623.7,752.8,624.9,752,625.7z"/>
				</g>
			</g>
		</g>
	</g>
</g>
<g id="memory_game" display="none">
	<g display="inline">
		<rect x="275" y="285" fill="#589B42" width="117" height="117"/>
		<g>
			<path fill="#8AC97A" d="M384,293v101H283V293H384 M400,277H267v133h133V277L400,277z"/>
		</g>
	</g>
	<g display="inline">
		<rect x="439" y="285" fill="#589B42" width="117" height="117"/>
		<g>
			<path fill="#8AC97A" d="M548,293v101H447V293H548 M564,277H431v133h133V277L564,277z"/>
		</g>
	</g>
	<g display="inline">
		<g opacity="0.2">
			<rect x="603" y="283" width="133" height="132"/>
		</g>
		<g>
			<rect x="596" y="276" fill="#F26262" width="133" height="132"/>
		</g>
	</g>
	<g display="inline">
		<g opacity="0.2">
			<rect x="275" y="448" width="133" height="132"/>
		</g>
		<g>
			<rect x="268" y="441" fill="#F26262" width="133" height="132"/>
		</g>
	</g>
	<g display="inline">
		<rect x="439" y="450" fill="#589B42" width="117" height="116"/>
		<g>
			<path fill="#8AC97A" d="M548,458v100H447V458H548 M564,442H431v132h133V442L564,442z"/>
		</g>
	</g>
	<g display="inline">
		<rect x="603" y="450" fill="#589B42" width="117" height="116"/>
		<g>
			<path fill="#8AC97A" d="M712,458v100H611V458H712 M728,442H595v132h133V442L728,442z"/>
		</g>
	</g>
	<g display="inline">
		<rect x="275" y="611" fill="#589B42" width="117" height="117"/>
		<g>
			<path fill="#8AC97A" d="M384,619v101H283V619H384 M400,603H267v133h133V603L400,603z"/>
		</g>
	</g>
	<g display="inline">
		<rect x="439" y="611" fill="#589B42" width="117" height="117"/>
		<g>
			<path fill="#8AC97A" d="M548,619v101H447V619H548 M564,603H431v133h133V603L564,603z"/>
		</g>
	</g>
	<g display="inline">
		<rect x="603" y="611" fill="#589B42" width="117" height="117"/>
		<g>
			<path fill="#8AC97A" d="M712,619v101H611V619H712 M728,603H595v133h133V603L728,603z"/>
		</g>
	</g>
	<g display="inline">
		<path fill="#F7CF5C" d="M373.4,499.9l-17.3,16.8l4.1,23.8c0,0.3,0,0.6,0,1c0,1.2-0.6,2.4-1.9,2.4c-0.7,0-1.3-0.2-1.9-0.6
			L335.1,532l-21.3,11.2c-0.6,0.3-1.2,0.6-1.9,0.6c-1.4,0-2-1.1-2-2.4c0-0.3,0-0.6,0.1-1l4.1-23.8l-17.3-16.8
			c-0.6-0.6-1.2-1.4-1.2-2.3c0-1.4,1.5-2,2.7-2.2l23.9-3.5l10.7-21.6c0.4-0.9,1.2-1.9,2.3-1.9c1.1,0,1.9,1,2.3,1.9l10.7,21.6
			l23.9,3.5c1.1,0.2,2.7,0.8,2.7,2.2C374.6,498.5,374,499.3,373.4,499.9z"/>
	</g>
	<g display="inline">
		<path fill="#F7CF5C" d="M701.7,334.4l-17.3,16.8l4.1,23.8c0,0.3,0,0.6,0,1c0,1.2-0.6,2.4-1.9,2.4c-0.7,0-1.3-0.2-1.9-0.6
			l-21.3-11.2L642,377.7c-0.6,0.3-1.2,0.6-1.9,0.6c-1.4,0-2-1.1-2-2.4c0-0.3,0-0.6,0.1-1l4.1-23.8L625,334.4
			c-0.6-0.6-1.2-1.4-1.2-2.3c0-1.4,1.5-2,2.7-2.2l23.9-3.5l10.7-21.6c0.4-0.9,1.2-1.9,2.3-1.9c1.1,0,1.9,1,2.3,1.9l10.7,21.6
			l23.9,3.5c1.1,0.2,2.7,0.8,2.7,2.2C702.9,332.9,702.3,333.7,701.7,334.4z"/>
	</g>
</g>
<g id="interactive_video" display="none">
	<g display="inline">
		<rect x="254.5" y="340" fill="#D4EFFF" width="491.1" height="276.2"/>
		<rect x="254.5" y="616.2" fill="#34495E" width="491.1" height="43.8"/>
		<polygon fill="#ECF0F1" points="270,626.8 288.8,637.7 270,648.5 		"/>
		<rect x="302.5" y="632.6" fill="#2C3E50" width="420" height="10.9"/>
		<rect x="302.5" y="632.6" fill="#ECF0F1" width="128.5" height="10.9"/>
		<path fill="#2A80BB" d="M316.8,446.1c23.7,0,42.8-19.2,42.8-42.8c0-23.7-19.2-42.8-42.8-42.8c-23.7,0-42.8,19.2-42.8,42.8
			C274,426.9,293.2,446.1,316.8,446.1z"/>
		<polygon fill="#3497DA" points="716.2,483.2 745.5,507.8 745.5,616.2 254.5,616.2 254.5,582.7 366.1,489.1 421.8,535.9 465.9,499 
			600.8,386 		"/>
		<g>
			<circle fill="#8E44AD" cx="509.3" cy="439.6" r="47.1"/>
		</g>
		<g opacity="0.5">
			<path fill="#8E44AD" d="M509.3,383.8c30.8,0,55.8,25,55.8,55.8s-25,55.8-55.8,55.8s-55.8-25-55.8-55.8S478.5,383.8,509.3,383.8
				 M509.3,373.8c-36.4,0-65.8,29.5-65.8,65.8s29.5,65.8,65.8,65.8s65.8-29.5,65.8-65.8S545.6,373.8,509.3,373.8L509.3,373.8z"/>
		</g>
		<g opacity="0.25">
			<g>
				<path fill="#8E44AD" d="M509.3,366.6c40.3,0,73,32.8,73,73s-32.8,73-73,73s-73-32.8-73-73S469,366.6,509.3,366.6 M509.3,356.6
					c-45.9,0-83,37.2-83,83c0,45.9,37.2,83,83,83s83-37.2,83-83C592.3,393.8,555.1,356.6,509.3,356.6L509.3,356.6z"/>
			</g>
		</g>
		<path opacity="0.5" fill="#662F84" d="M509.3,463.3c-22,0-40.4-15-45.6-35.4c-1,3.7-1.5,7.7-1.5,11.7c0,26,21.1,47.1,47.1,47.1
			c26,0,47.1-21.1,47.1-47.1c0-4-0.5-8-1.5-11.7C549.7,448.3,531.2,463.3,509.3,463.3z"/>
		<path opacity="0.2" d="M603.1,502.1V516L523,430.2c0,0-13.2,101.6-17.4,188.9l40.9,41h199v-15.3L603.1,502.1z"/>
		<g id="XMLID_1_">
			<g>
				<g id="XMLID_19_">
					<g id="XMLID_20_">
						<path fill="#ECF0F1" d="M617.3,517.6c0,19.3,0.1,38.6,0,57.8c-0.1,14.9-3.5,29.1-11.2,42.1c-4.6,7.7-10.4,14.3-17.9,19.3
							c-7.3,4.8-15.3,7.6-24.2,7.5c-6.9,0-13.8,0.2-20.7-0.2c-10.1-0.6-18.8-4.8-26.4-11.4c-8.8-7.6-14.7-17.1-18.7-27.9
							c-0.4-1.2-1.1-2.3-1.9-3.3c-4.9-5.7-9.7-11.5-14.8-17.1c-7-7.7-15.5-13.4-24.9-17.9c-4.8-2.3-7.8-6.2-8.5-11.5
							c-0.7-6,2.2-10.1,7.2-12.9c5.3-3,11.2-3.7,17.2-3.4c7,0.4,13.6,2.2,19.7,5.8c0.2,0.1,0.3,0.2,1,0.5c-0.1-2.2-0.3-4.2-0.3-6.1
							c0-29.3,0.1-65.5,0-94.9c-0.1-10.9,9.9-19.8,21.4-17.8c9.5,1.6,15.4,9,15.3,18.6c-0.1,7.8,0,22.5,0,30.3c0,2.6,0,5.2-0.1,8
							c10-6.9,24.9-3.2,28.8,10.2c5.4-3.9,11.4-5,17.6-2.8c6.3,2.2,10.2,6.8,11.8,13.5c0.5-0.3,0.9-0.5,1.2-0.8
							c8.6-5.6,20.5-3,25.8,5.7C616.5,511.7,617.3,514.6,617.3,517.6z"/>
					</g>
				</g>
			</g>
		</g>
		<g>
			<path fill="#FFFFFF" d="M395.7,460.2H341c-12.4,0-22.5-10.1-22.5-22.5c0-9,5.3-16.8,13-20.4c0-0.7-0.1-1.5-0.1-2.2
				c0-14.2,11.5-25.7,25.7-25.7c10.8,0,20,6.6,23.8,16c2.2-2,5.1-3.1,8.3-3.1c7.1,0,12.9,5.8,12.9,12.9c0,2.6-0.8,4.9-2.1,6.9
				c8.5,2,14.9,9.7,14.9,18.8C415,451.6,406.3,460.2,395.7,460.2z"/>
		</g>
		<g opacity="0.6">
			<path fill="#FFFFFF" d="M372.3,460.2h-54.7c-12.4,0-22.5-10.1-22.5-22.5c0-9,5.3-16.8,13-20.4c0-0.7-0.1-1.5-0.1-2.2
				c0-14.2,11.5-25.7,25.7-25.7c10.8,0,20,6.6,23.8,16c2.2-2,5.1-3.1,8.3-3.1c7.1,0,12.9,5.8,12.9,12.9c0,2.6-0.8,4.9-2.1,6.9
				c8.5,2,14.9,9.7,14.9,18.8C391.6,451.6,382.9,460.2,372.3,460.2z"/>
		</g>
		<g opacity="0.3">
			<path fill="#FFFFFF" d="M349.6,460.2H295c-12.4,0-22.5-10.1-22.5-22.5c0-9,5.3-16.8,13-20.4c0-0.7-0.1-1.5-0.1-2.2
				c0-14.2,11.5-25.7,25.7-25.7c10.8,0,20,6.6,23.8,16c2.2-2,5.1-3.1,8.3-3.1c7.1,0,12.9,5.8,12.9,12.9c0,2.6-0.8,4.9-2.1,6.9
				c8.5,2,14.9,9.7,14.9,18.8C368.9,451.6,360.3,460.2,349.6,460.2z"/>
		</g>
	</g>
</g>
<g id="image_hotspot_1_" display="none">
	<g display="inline">
		<rect x="290.2" y="347.2" fill="#FFFFFF" width="419.7" height="303"/>
	</g>
	<polygon display="inline" fill="#34495E" points="689.1,492.5 715,518.2 715,655 285,655 285,596.2 382.7,498.7 431.6,547.4 
		470.1,509 588.1,391.2 	"/>
	<path display="inline" fill="#34495E" d="M357.7,457.8c24.7,0,44.7-20,44.7-44.7c0-24.7-20-44.7-44.7-44.7s-44.7,20-44.7,44.7
		C313,437.8,333,457.8,357.7,457.8z"/>
	<g display="inline">
		<g opacity="0.25">
			<path d="M644.1,414.3c0-27.7-22.4-50.1-50.1-50.1S544,386.7,544,414.3c0,15.8,7.3,29.8,18.7,39c8.6,6.9,19.5,11.1,31.4,11.1
				C621.7,464.4,644.1,442,644.1,414.3z"/>
		</g>
		<g>
			<path fill="#E58833" d="M634.1,404.3c0-27.7-22.4-50.1-50.1-50.1S534,376.7,534,404.3c0,15.8,7.3,29.8,18.7,39
				c8.6,6.9,19.5,11.1,31.4,11.1C611.7,454.4,634.1,432,634.1,404.3z"/>
		</g>
	</g>
	<g display="inline">
		<path fill="#FFFFFF" d="M612.6,408.2c0,2.1-1.7,3.9-3.9,3.9h-16.9V429c0,2.1-1.7,3.9-3.9,3.9h-7.8c-2.2,0-3.9-1.7-3.9-3.9v-16.9
			h-16.9c-2.2,0-3.9-1.7-3.9-3.9v-7.8c0-2.1,1.7-3.9,3.9-3.9h16.9v-16.9c0-2.1,1.7-3.9,3.9-3.9h7.8c2.2,0,3.9,1.7,3.9,3.9v16.9h16.9
			c2.2,0,3.9,1.7,3.9,3.9V408.2z"/>
	</g>
	<g display="inline">
		<g>
			<g opacity="0.25">
				<path d="M594.4,577.3c0-27.7-22.4-50.1-50.1-50.1c-27.7,0-50.1,22.4-50.1,50.1c0,15.8,7.3,29.8,18.7,39
					c8.6,6.9,19.5,11.1,31.4,11.1C572,627.4,594.4,604.9,594.4,577.3z"/>
			</g>
			<g>
				<path fill="#E58833" d="M584.4,567.3c0-27.7-22.4-50.1-50.1-50.1c-27.7,0-50.1,22.4-50.1,50.1c0,15.8,7.3,29.8,18.7,39
					c8.6,6.9,19.5,11.1,31.4,11.1C562,617.4,584.4,594.9,584.4,567.3z"/>
			</g>
		</g>
		<g>
			<path fill="#FFFFFF" d="M562.9,571.2c0,2.1-1.7,3.9-3.9,3.9h-16.9V592c0,2.1-1.7,3.9-3.9,3.9h-7.8c-2.2,0-3.9-1.7-3.9-3.9v-16.9
				h-16.9c-2.2,0-3.9-1.7-3.9-3.9v-7.8c0-2.1,1.7-3.9,3.9-3.9h16.9v-16.9c0-2.1,1.7-3.9,3.9-3.9h7.8c2.2,0,3.9,1.7,3.9,3.9v16.9H559
				c2.2,0,3.9,1.7,3.9,3.9V571.2z"/>
		</g>
	</g>
	<g display="inline">
		<g opacity="0.25">
			<path d="M446.9,467.5c0-27.7-22.4-50.1-50.1-50.1c-27.7,0-50.1,22.4-50.1,50.1c0,15.8,7.3,29.8,18.7,39
				c8.6,6.9,19.5,11.1,31.4,11.1C424.4,517.6,446.9,495.2,446.9,467.5z"/>
		</g>
		<g>
			<path fill="#E58833" d="M436.9,457.5c0-27.7-22.4-50.1-50.1-50.1c-27.7,0-50.1,22.4-50.1,50.1c0,15.8,7.3,29.8,18.7,39
				c8.6,6.9,19.5,11.1,31.4,11.1C414.4,507.6,436.9,485.2,436.9,457.5z"/>
		</g>
	</g>
	<g display="inline">
		<path fill="#FFFFFF" d="M415.4,461.4c0,2.1-1.7,3.9-3.9,3.9h-16.9v16.9c0,2.1-1.7,3.9-3.9,3.9h-7.8c-2.2,0-3.9-1.7-3.9-3.9v-16.9
			h-16.9c-2.2,0-3.9-1.7-3.9-3.9v-7.8c0-2.1,1.7-3.9,3.9-3.9H379v-16.9c0-2.1,1.7-3.9,3.9-3.9h7.8c2.2,0,3.9,1.7,3.9,3.9v16.9h16.9
			c2.2,0,3.9,1.7,3.9,3.9V461.4z"/>
	</g>
	<path display="inline" fill="#97BAF6" d="M710.7,347.9v304.2H289.3V347.9H710.7 M742.5,316h-31.9H289.3h-31.9v31.9v304.2V684h31.9
		h421.3h31.9v-31.9V347.9V316L742.5,316z"/>
</g>
<g id="iframe_embedder" display="none">
	<g display="inline">
		<circle fill="#BBD39F" cx="500" cy="500" r="202"/>
		<g>
			<path fill="#31387A" d="M632.7,492.5l-66.1-66.1c-2-2-4.7-3.2-7.5-3.2s-5.5,1.1-7.5,3.2l-7.1,7.1c-4.2,4.2-4.2,10.8,0,15.1
				l51.5,51.5l-51.5,51.5c-4.2,4.2-4.2,10.8,0,15.1l7.1,7.1c2,2,4.7,3.2,7.5,3.2s5.5-1.1,7.5-3.2l66.1-66.1c2-2,3.2-4.7,3.2-7.5
				C635.8,497.2,634.7,494.5,632.7,492.5z"/>
			<path fill="#31387A" d="M455.6,551.5L404.1,500l51.5-51.5c4.2-4.2,4.2-10.8,0-15.1l-7.1-7.1c-2-2-4.7-3.2-7.5-3.2
				s-5.5,1.1-7.5,3.2l-66.1,66.1c-2,2-3.2,4.7-3.2,7.5c0,2.8,1.1,5.5,3.2,7.5l66.1,66.1c2,2,4.7,3.2,7.5,3.2c2.8,0,5.5-1.1,7.5-3.2
				l7.1-7.1C459.8,562.3,459.8,555.7,455.6,551.5z"/>
			<path fill="#31387A" d="M540.1,404.5c-1.4-2.5-3.6-4.3-6.3-5.1l0,0l0,0l-8.7-2.4c-0.9-0.3-1.9-0.4-2.9-0.4h0
				c-4.6,0-8.8,3.1-10.1,7.6L459,587.4c-0.8,2.7-0.5,5.5,0.9,8c1.4,2.5,3.6,4.3,6.3,5.1l0,0l0,0l8.7,2.4c0.9,0.3,1.9,0.4,2.9,0.4
				c4.6,0,8.8-3.1,10.1-7.6L541,412.6C541.8,409.9,541.5,407,540.1,404.5z"/>
		</g>
	</g>
</g>
<g id="guess_the_answer" display="none">
	<g display="inline">
		<rect x="289.3" y="347.9" fill="#97BAF6" width="421.3" height="304.2"/>
	</g>
	<polygon display="inline" fill="#34495E" points="689.4,493.8 715,519.6 715,657 285,657 285,597.9 382.7,500 431.5,549 
		470.1,510.3 588.3,392.1 	"/>
	<path display="inline" fill="#34495E" d="M357.1,459c24.7,0,44.8-20.1,44.8-44.8c0-24.7-20.1-44.8-44.8-44.8
		c-24.7,0-44.8,20.1-44.8,44.8C312.3,438.9,332.4,459,357.1,459z"/>
	<path display="inline" fill="#DDDDDD" d="M710.7,347.9v304.2H289.3V347.9H710.7 M742.5,316h-31.9H289.3h-31.9v38.6v367.9V761h31.9
		h421.3h31.9v-38.6V354.6V316L742.5,316z"/>
	<path display="inline" fill="#2882D3" d="M572.1,732H427.9c-14.9,0-27-12.1-27-27l0,0c0-14.9,12.1-27,27-27h144.2
		c14.9,0,27,12.1,27,27l0,0C599.1,719.9,587,732,572.1,732z"/>
	<g id="XMLID_84_" display="inline">
		<g opacity="0.15">
			<path id="XMLID_178_" d="M364.9,634.5H226.3c-12.6,0-23-10.3-23-23v-35.3c0-12.7,10.4-23,23-23h138.6c12.6,0,23,10.3,23,23v35.3
				C387.9,624.2,377.6,634.5,364.9,634.5z"/>
			<path id="XMLID_173_" d="M292,681.2c-10.5,0-20.6-0.9-30.2-2.6c-16.3,16.3-37.7,27.5-62.3,32.8c-3.9,0.7-8,1.4-12.3,1.9
				c-2.3,0.3-4.4-1.3-5-3.4c-0.6-2.3,1.1-3.7,2.9-5.3c9-8.5,19.8-15.2,23.5-45.4c-27.4-16.8-44.9-41.7-44.9-69.6
				c0-50.7,57.5-91.7,128.4-91.7s128.4,41,128.4,91.7C420.4,640.2,362.9,681.2,292,681.2z M237,571.1c-10.2,0-18.3,8.2-18.3,18.3
				c0,10.2,8.2,18.3,18.3,18.3c10.2,0,18.3-8.2,18.3-18.3C255.3,579.3,247.1,571.1,237,571.1z M292,571.1
				c-10.2,0-18.3,8.2-18.3,18.3c0,10.2,8.2,18.3,18.3,18.3s18.3-8.2,18.3-18.3C310.3,579.3,302.2,571.1,292,571.1z M347,571.1
				c-10.2,0-18.3,8.2-18.3,18.3c0,10.2,8.2,18.3,18.3,18.3c10.2,0,18.3-8.2,18.3-18.3C365.4,579.3,357.2,571.1,347,571.1z"/>
		</g>
		<g>
			<g>
				<path id="XMLID_152_" fill="#F1912B" d="M357.9,627.5H219.3c-12.6,0-23-10.3-23-23v-35.3c0-12.7,10.4-23,23-23h138.6
					c12.6,0,23,10.3,23,23v35.3C380.9,617.2,370.6,627.5,357.9,627.5z"/>
				<g id="XMLID_145_">
					<g>
						<path id="XMLID_147_" fill="#FBC362" d="M285,674.2c-10.5,0-20.6-0.9-30.2-2.6c-16.3,16.3-37.7,27.5-62.3,32.8
							c-3.9,0.7-8,1.4-12.3,1.9c-2.3,0.3-4.4-1.3-5-3.4c-0.6-2.3,1.1-3.7,2.9-5.3c9-8.5,19.8-15.2,23.5-45.4
							c-27.4-16.8-44.9-41.7-44.9-69.6c0-50.7,57.5-91.7,128.4-91.7s128.4,41,128.4,91.7C413.4,633.2,355.9,674.2,285,674.2z
							 M230,564.1c-10.2,0-18.3,8.2-18.3,18.3c0,10.2,8.2,18.3,18.3,18.3c10.2,0,18.3-8.2,18.3-18.3
							C248.3,572.3,240.1,564.1,230,564.1z M285,564.1c-10.2,0-18.3,8.2-18.3,18.3c0,10.2,8.2,18.3,18.3,18.3s18.3-8.2,18.3-18.3
							C303.3,572.3,295.2,564.1,285,564.1z M340,564.1c-10.2,0-18.3,8.2-18.3,18.3c0,10.2,8.2,18.3,18.3,18.3
							c10.2,0,18.3-8.2,18.3-18.3C358.4,572.3,350.2,564.1,340,564.1z"/>
					</g>
				</g>
			</g>
		</g>
	</g>
	<g id="XMLID_83_" display="inline">
		<g opacity="0.15">
			<path id="XMLID_171_" d="M762,623.9H659.5c-12.7,0-23-10.3-23-23v-22.6c0-12.6,10.3-23,23-23H762c12.7,0,23,10.4,23,23v22.6
				C785,613.6,774.7,623.9,762,623.9z"/>
			<path id="XMLID_166_" d="M605.5,589.9c0-40.3,45.6-72.8,101.9-72.8s101.9,32.5,101.9,72.8c0,22.2-13.9,42-35.6,55.3
				c3,24,11.5,29.3,18.7,36.1c1.4,1.3,2.7,2.4,2.3,4.2c-0.5,1.7-2.2,3-4,2.7c-3.4-0.3-6.7-0.9-9.8-1.5c-19.6-4.2-36.5-13.1-49.5-26
				c-7.6,1.4-15.7,2-24,2C651.1,662.7,605.5,630.2,605.5,589.9z M736.5,589.9c0,8.1,6.5,14.6,14.6,14.6c8.1,0,14.6-6.5,14.6-14.6
				c0-8.1-6.5-14.6-14.6-14.6C743,575.4,736.5,581.8,736.5,589.9z M692.8,589.9c0,8.1,6.5,14.6,14.6,14.6s14.6-6.5,14.6-14.6
				c0-8.1-6.5-14.6-14.6-14.6S692.8,581.8,692.8,589.9z M649.1,589.9c0,8.1,6.5,14.6,14.6,14.6c8.1,0,14.6-6.5,14.6-14.6
				c0-8.1-6.5-14.6-14.6-14.6C655.6,575.4,649.1,581.8,649.1,589.9z"/>
		</g>
		<g>
			<g>
				<path id="XMLID_146_" fill="#FBC362" d="M755,616.9H652.5c-12.7,0-23-10.3-23-23v-22.6c0-12.6,10.3-23,23-23H755
					c12.7,0,23,10.4,23,23v22.6C778,606.6,767.7,616.9,755,616.9z"/>
				<g id="XMLID_139_">
					<g>
						<path id="XMLID_140_" fill="#F1912B" d="M598.5,582.9c0-40.3,45.6-72.8,101.9-72.8s101.9,32.5,101.9,72.8
							c0,22.2-13.9,42-35.6,55.3c3,24,11.5,29.3,18.7,36.1c1.4,1.3,2.7,2.4,2.3,4.2c-0.5,1.7-2.2,3-4,2.7c-3.4-0.3-6.7-0.9-9.8-1.5
							c-19.6-4.2-36.5-13.1-49.5-26c-7.6,1.4-15.7,2-24,2C644.1,655.7,598.5,623.2,598.5,582.9z M729.5,582.9
							c0,8.1,6.5,14.6,14.6,14.6c8.1,0,14.6-6.5,14.6-14.6c0-8.1-6.5-14.6-14.6-14.6C736,568.4,729.5,574.8,729.5,582.9z
							 M685.8,582.9c0,8.1,6.5,14.6,14.6,14.6s14.6-6.5,14.6-14.6c0-8.1-6.5-14.6-14.6-14.6S685.8,574.8,685.8,582.9z M642.1,582.9
							c0,8.1,6.5,14.6,14.6,14.6c8.1,0,14.6-6.5,14.6-14.6c0-8.1-6.5-14.6-14.6-14.6C648.6,568.4,642.1,574.8,642.1,582.9z"/>
					</g>
				</g>
			</g>
		</g>
	</g>
</g>
<g id="flashcards" display="none">
	<g display="inline">
		<g opacity="0.15">
			<path d="M711.6,359l61.8,341.2c3.7,20.6-10.1,40.5-30.7,44.2l-387.8,70.2c-20.6,3.7-40.5-10.1-44.2-30.7l-61.8-341.2
				c-3.7-20.6,10.1-40.5,30.7-44.2l387.8-70.2C688,324.6,707.9,338.4,711.6,359z"/>
		</g>
		<g>
			<path fill="#91CADE" d="M711.6,352l61.8,341.2c3.7,20.6-10.1,40.5-30.7,44.2l-387.8,70.2c-20.6,3.7-40.5-10.1-44.2-30.7
				l-61.8-341.2c-3.7-20.6,10.1-40.5,30.7-44.2l387.8-70.2C688,317.6,707.9,331.4,711.6,352z"/>
		</g>
	</g>
	<g display="inline">
		<g opacity="0.15">
			<path d="M717.9,356.2l32.1,346.6c1.9,20.8-13.5,39.5-34.4,41.4l-392.4,36.4c-20.8,1.9-39.5-13.5-41.4-34.4l-32.1-346.6
				c-1.9-20.8,13.5-39.5,34.4-41.4l392.4-36.4C697.4,319.9,716,335.4,717.9,356.2z"/>
		</g>
		<g>
			<path fill="#F26262" d="M717.9,349.2l32.1,346.6c1.9,20.8-13.5,39.5-34.4,41.4l-392.4,36.4c-20.8,1.9-39.5-13.5-41.4-34.4
				l-32.1-346.6c-1.9-20.8,13.5-39.5,34.4-41.4l392.4-36.4C697.4,312.9,716,328.4,717.9,349.2z"/>
		</g>
	</g>
	<g display="inline">
		<g opacity="0.15">
			<path d="M719,359.7V691c0,20.9-17.1,38.1-38.1,38.1H286.8c-20.9,0-38.1-17.1-38.1-38.1V359.7c0-20.9,17.1-38.1,38.1-38.1h394.1
				C701.9,321.6,719,338.8,719,359.7z"/>
		</g>
		<g>
			<path fill="#8AC97A" d="M719,352.7V684c0,20.9-17.1,38.1-38.1,38.1H286.8c-20.9,0-38.1-17.1-38.1-38.1V352.7
				c0-20.9,17.1-38.1,38.1-38.1h394.1C701.9,314.6,719,331.8,719,352.7z"/>
		</g>
	</g>
	<polygon display="inline" fill="#589B42" points="657.2,440.3 680.6,463.8 680.6,589.1 287.4,589.1 287.4,535.3 376.9,446 
		421.6,490.6 456.9,455.4 564.8,347.5 	"/>
	<circle display="inline" fill="#589B42" cx="324.1" cy="384.3" r="36.7"/>
	<path display="inline" fill="#E0E0E0" d="M600.3,673.6H352.8c-8.7,0-15.7-7.1-15.7-15.7v-15c0-8.7,7.1-15.7,15.7-15.7h247.5
		c8.7,0,15.7,7.1,15.7,15.7v15C616.1,666.5,609,673.6,600.3,673.6z"/>
	<path display="inline" fill="#FFFFFF" d="M603.3,678.6H355.8c-8.7,0-15.7-7.1-15.7-15.7v-15c0-8.7,7.1-15.7,15.7-15.7h247.5
		c8.7,0,15.7,7.1,15.7,15.7v15C619.1,671.5,612,678.6,603.3,678.6z"/>
</g>
<g id="find_the_hotspot" display="none">
	<g display="inline">
		<g>
			<rect x="289.3" y="347.9" fill="#FFFFFF" width="421.3" height="304.2"/>
		</g>
		<polygon fill="#34495E" points="689.4,493.8 715,519.6 715,657 285,657 285,597.9 382.7,500 431.5,549 470.1,510.3 588.3,392.1 		
			"/>
		<g>
			<g opacity="0.25">
				<path d="M677.2,482.9c0-48.3-39.2-87.5-87.5-87.5s-87.5,39.2-87.5,87.5c0,27.5,12.7,52.1,32.6,68.1c15,12.1,34.1,19.4,54.9,19.4
					C638,570.4,677.2,531.3,677.2,482.9z"/>
			</g>
			<g>
				<path fill="#2ECC71" d="M667.2,472.9c0-48.3-39.2-87.5-87.5-87.5s-87.5,39.2-87.5,87.5c0,27.5,12.7,52.1,32.6,68.1
					c15,12.1,34.1,19.4,54.9,19.4C628,560.4,667.2,521.3,667.2,472.9z"/>
			</g>
		</g>
		<path fill="#F1C40F" d="M357.1,459c24.7,0,44.8-20.1,44.8-44.8c0-24.7-20.1-44.8-44.8-44.8c-24.7,0-44.8,20.1-44.8,44.8
			C312.3,438.9,332.4,459,357.1,459z"/>
		<g>
			<path fill="#FFFFFF" d="M623.5,458.3l-42.4,42.4l-8,8c-1.1,1.1-2.5,1.6-4,1.6c-1.5,0-2.9-0.6-4-1.6l-8-8l-21.2-21.2
				c-1.1-1.1-1.6-2.5-1.6-4s0.6-2.9,1.6-4l8-8c1.1-1.1,2.5-1.6,4-1.6c1.5,0,2.9,0.6,4,1.6l17.2,17.3l38.4-38.5
				c1.1-1.1,2.5-1.6,4-1.6s2.9,0.6,4,1.6l8,8c1.1,1.1,1.6,2.5,1.6,4C625.2,455.7,624.6,457.2,623.5,458.3z"/>
		</g>
		<path fill="#E74C3C" d="M710.7,347.9v304.2H289.3V347.9H710.7 M742.5,316h-31.9H289.3h-31.9v31.9v304.2V684h31.9h421.3h31.9v-31.9
			V347.9V316L742.5,316z"/>
	</g>
</g>
<g id="facebook_page_feed" display="none">
	<g display="inline">
		<path fill="#8DB7E2" d="M336.6,708.8c0,23.9,19.3,43.2,43.2,43.2h270.3c23.9,0,42.9-19.3,42.9-43.2V291.2
			c0-23.9-19.1-43.2-42.9-43.2H379.8c-23.9,0-43.2,19.3-43.2,43.2l0.4,417.6"/>
	</g>
	<g display="inline">
		<line fill="none" stroke="#FFFFFF" stroke-width="20" stroke-miterlimit="10" x1="405" y1="359" x2="615" y2="359"/>
		<line fill="none" stroke="#FFFFFF" stroke-width="20" stroke-miterlimit="10" x1="405" y1="430" x2="615" y2="430"/>
		<line fill="none" stroke="#FFFFFF" stroke-width="20" stroke-miterlimit="10" x1="405" y1="500" x2="615" y2="500"/>
		<line fill="none" stroke="#FFFFFF" stroke-width="20" stroke-miterlimit="10" x1="405" y1="571" x2="615" y2="571"/>
		<line fill="none" stroke="#FFFFFF" stroke-width="20" stroke-miterlimit="10" x1="405" y1="641" x2="615" y2="641"/>
	</g>
	<path display="inline" opacity="0.15" fill="#164A75" d="M693,708.8L693,708.8L428.1,443.6L337,495v213.8
		c0,23.9,18.9,43.2,42.8,43.2h270.3C673.9,752,693,732.7,693,708.8z"/>
	<g display="inline">
		<path fill="#206491" d="M428,496h-31.3c-24.5,0-29.1,11.8-29.1,28.7v37.6H426l-7.8,58.9h-50.6v151.1h-60.9V621.2H256v-58.9h50.8
			v-43.4c0-50.4,30.9-77.9,75.8-77.9c21.5,0,40,1.6,45.4,2.4V496z"/>
	</g>
</g>
<g id="mark_the_words_copy" display="none">
	<rect x="142" y="53.4" display="inline" fill="#9A5BB4" width="716" height="893.3"/>
	<g display="inline">
		<g opacity="0.15">
			<rect x="224.4" y="139.1" fill="#231F20" width="581.2" height="751.7"/>
		</g>
		<g>
			<rect x="209.4" y="124.1" fill="#FFFFFF" width="581.2" height="751.7"/>
		</g>
	</g>
	<path display="inline" fill="#79AAD3" d="M480.1,302.4H348.6c-3.3,0-6-2.7-6-6v-24c0-3.3,2.7-7,6-7h131.5c3.3,0,6,3.7,6,7v24
		C486.1,299.7,483.4,302.4,480.1,302.4z"/>
	<path display="inline" fill="#B0AFAD" d="M317,302.4h-33.9c-3.3,0-6-2.7-6-6v-24c0-3.3,2.7-7,6-7H317c3.3,0,6,3.7,6,7v24
		C323,299.7,320.3,302.4,317,302.4z"/>
	<path display="inline" fill="#B0AFAD" d="M583,302.4h-70.6c-3.3,0-6-2.7-6-6v-24c0-3.3,2.7-7,6-7H583c3.3,0,6,3.7,6,7v24
		C589,299.7,586.3,302.4,583,302.4z"/>
	<path display="inline" fill="#B0AFAD" d="M729.3,302.4H617.7c-3.3,0-6-2.7-6-6v-24c0-3.3,2.7-7,6-7h111.6c3.3,0,6,3.7,6,7v24
		C735.3,299.7,732.6,302.4,729.3,302.4z"/>
	<path display="inline" fill="#B0AFAD" d="M336.6,413.3h-53.5c-3.3,0-6-2.7-6-6v-25c0-3.3,2.7-6,6-6h53.5c3.3,0,6,2.7,6,6v25
		C342.6,410.6,339.9,413.3,336.6,413.3z"/>
	<path display="inline" fill="#B0AFAD" d="M405.5,413.3h-39.2c-3.3,0-6-2.7-6-6v-25c0-3.3,2.7-6,6-6h39.2c3.3,0,6,2.7,6,6v25
		C411.5,410.6,408.8,413.3,405.5,413.3z"/>
	<path display="inline" fill="#B0AFAD" d="M633.2,413.3h-89.3c-3.3,0-6-2.7-6-6v-25c0-3.3,2.7-6,6-6h89.3c3.3,0,6,2.7,6,6v25
		C639.2,410.6,636.5,413.3,633.2,413.3z"/>
	<path display="inline" fill="#B0AFAD" d="M690.4,413.3h-26.9c-3.3,0-6-2.7-6-6v-25c0-3.3,2.7-6,6-6h26.9c3.3,0,6,2.7,6,6v25
		C696.4,410.6,693.7,413.3,690.4,413.3z"/>
	<path display="inline" fill="#79AAD3" d="M510.5,413.3h-75c-3.3,0-6-2.7-6-6v-25c0-3.3,2.7-6,6-6h75c3.3,0,6,2.7,6,6v25
		C516.5,410.6,513.8,413.3,510.5,413.3z"/>
	<path display="inline" fill="#B0AFAD" d="M605.5,487.1h39.2c3.3,0,6,2.7,6,6v25c0,3.3-2.7,6-6,6h-39.2c-3.3,0-6-2.7-6-6v-25
		C599.5,489.8,602.2,487.1,605.5,487.1z"/>
	<path display="inline" fill="#B0AFAD" d="M283.1,487.1h65.8c3.3,0,6,2.7,6,6v25c0,3.3-2.7,6-6,6h-65.8c-3.3,0-6-2.7-6-6v-25
		C277.1,489.8,279.8,487.1,283.1,487.1z"/>
	<path display="inline" fill="#B0AFAD" d="M380.3,487.1h192.2c3.3,0,6,2.7,6,6v25c0,3.3-2.7,6-6,6H380.3c-3.3,0-6-2.7-6-6v-25
		C374.3,489.8,377,487.1,380.3,487.1z"/>
	<path display="inline" fill="#B0AFAD" d="M283.1,598H317c3.3,0,6,2.7,6,6v25c0,3.3-2.7,6-6,6h-33.9c-3.3,0-6-2.7-6-6v-25
		C277.1,600.7,279.8,598,283.1,598z"/>
	<path display="inline" fill="#B0AFAD" d="M423.2,598H483c3.3,0,6,2.7,6,6v25c0,3.3-2.7,6-6,6h-59.8c-3.3,0-6-2.7-6-6v-25
		C417.2,600.7,419.9,598,423.2,598z"/>
	<path display="inline" fill="#B0AFAD" d="M515.2,598h112.5c3.3,0,6,2.7,6,6v25c0,3.3-2.7,6-6,6H515.2c-3.3,0-6-2.7-6-6v-25
		C509.2,600.7,511.9,598,515.2,598z"/>
	<path display="inline" fill="#B0AFAD" d="M658.1,598h60.2c3.3,0,6,2.7,6,6v25c0,3.3-2.7,6-6,6h-60.2c-3.3,0-6-2.7-6-6v-25
		C652.1,600.7,654.8,598,658.1,598z"/>
	<path display="inline" fill="#79AAD3" d="M393.1,634.9h-44.5c-3.3,0-6-2.7-6-6v-25c0-3.3,2.7-6,6-6h44.5c3.3,0,6,2.7,6,6v25
		C399.1,632.2,396.4,634.9,393.1,634.9z"/>
	<path display="inline" fill="#B0AFAD" d="M283.1,708.8h110c3.3,0,6,2.7,6,6v25c0,3.3-2.7,6-6,6h-110c-3.3,0-6-2.7-6-6v-25
		C277.1,711.5,279.8,708.8,283.1,708.8z"/>
	<path display="inline" fill="#B0AFAD" d="M422.4,708.8h14.1c3.3,0,6,2.7,6,6v25c0,3.3-2.7,6-6,6h-14.1c-3.3,0-6-2.7-6-6v-25
		C416.4,711.5,419.1,708.8,422.4,708.8z"/>
	<path display="inline" fill="#79AAD3" d="M605.7,745.8H464.4c-3.3,0-6-2.7-6-6v-25c0-3.3,2.7-6,6-6h141.3c3.3,0,6,2.7,6,6v25
		C611.7,743.1,609,745.8,605.7,745.8z"/>
</g>
<g id="fill_in_the_blanks_1_" display="none">
	<rect x="142" y="53.4" display="inline" fill="#F06060" width="716" height="893.3"/>
	<g display="inline">
		<g opacity="0.15">
			<rect x="224.4" y="139.1" fill="#231F20" width="581.2" height="751.7"/>
		</g>
		<g>
			<rect x="209.4" y="124.1" fill="#FFFFFF" width="581.2" height="751.7"/>
		</g>
	</g>
	<path display="inline" fill="none" stroke="#79AAD3" stroke-width="12" stroke-miterlimit="10" d="M480.1,302.4H348.6
		c-3.3,0-6-2.7-6-6v-24c0-3.3,2.7-7,6-7h131.5c3.3,0,6,3.7,6,7v24C486.1,299.7,483.4,302.4,480.1,302.4z"/>
	<path display="inline" fill="#B0AFAD" d="M317,302.4h-33.9c-3.3,0-6-2.7-6-6v-24c0-3.3,2.7-7,6-7H317c3.3,0,6,3.7,6,7v24
		C323,299.7,320.3,302.4,317,302.4z"/>
	<path display="inline" fill="#B0AFAD" d="M583,302.4h-70.6c-3.3,0-6-2.7-6-6v-24c0-3.3,2.7-7,6-7H583c3.3,0,6,3.7,6,7v24
		C589,299.7,586.3,302.4,583,302.4z"/>
	<path display="inline" fill="#B0AFAD" d="M729.3,302.4H617.7c-3.3,0-6-2.7-6-6v-24c0-3.3,2.7-7,6-7h111.6c3.3,0,6,3.7,6,7v24
		C735.3,299.7,732.6,302.4,729.3,302.4z"/>
	<path display="inline" fill="#B0AFAD" d="M336.6,413.3h-53.5c-3.3,0-6-2.7-6-6v-25c0-3.3,2.7-6,6-6h53.5c3.3,0,6,2.7,6,6v25
		C342.6,410.6,339.9,413.3,336.6,413.3z"/>
	<path display="inline" fill="#B0AFAD" d="M405.5,413.3h-39.2c-3.3,0-6-2.7-6-6v-25c0-3.3,2.7-6,6-6h39.2c3.3,0,6,2.7,6,6v25
		C411.5,410.6,408.8,413.3,405.5,413.3z"/>
	<path display="inline" fill="#B0AFAD" d="M633.2,413.3h-89.3c-3.3,0-6-2.7-6-6v-25c0-3.3,2.7-6,6-6h89.3c3.3,0,6,2.7,6,6v25
		C639.2,410.6,636.5,413.3,633.2,413.3z"/>
	<path display="inline" fill="#B0AFAD" d="M690.4,413.3h-26.9c-3.3,0-6-2.7-6-6v-25c0-3.3,2.7-6,6-6h26.9c3.3,0,6,2.7,6,6v25
		C696.4,410.6,693.7,413.3,690.4,413.3z"/>
	<path display="inline" fill="none" stroke="#79AAD3" stroke-width="12" stroke-miterlimit="10" d="M510.5,413.3h-75
		c-3.3,0-6-2.7-6-6v-25c0-3.3,2.7-6,6-6h75c3.3,0,6,2.7,6,6v25C516.5,410.6,513.8,413.3,510.5,413.3z"/>
	<path display="inline" fill="#B0AFAD" d="M605.5,487.1h39.2c3.3,0,6,2.7,6,6v25c0,3.3-2.7,6-6,6h-39.2c-3.3,0-6-2.7-6-6v-25
		C599.5,489.8,602.2,487.1,605.5,487.1z"/>
	<path display="inline" fill="#B0AFAD" d="M283.1,487.1h65.8c3.3,0,6,2.7,6,6v25c0,3.3-2.7,6-6,6h-65.8c-3.3,0-6-2.7-6-6v-25
		C277.1,489.8,279.8,487.1,283.1,487.1z"/>
	<path display="inline" fill="#B0AFAD" d="M380.3,487.1h192.2c3.3,0,6,2.7,6,6v25c0,3.3-2.7,6-6,6H380.3c-3.3,0-6-2.7-6-6v-25
		C374.3,489.8,377,487.1,380.3,487.1z"/>
	<path display="inline" fill="#B0AFAD" d="M283.1,598H317c3.3,0,6,2.7,6,6v25c0,3.3-2.7,6-6,6h-33.9c-3.3,0-6-2.7-6-6v-25
		C277.1,600.7,279.8,598,283.1,598z"/>
	<path display="inline" fill="#B0AFAD" d="M423.2,598H483c3.3,0,6,2.7,6,6v25c0,3.3-2.7,6-6,6h-59.8c-3.3,0-6-2.7-6-6v-25
		C417.2,600.7,419.9,598,423.2,598z"/>
	<path display="inline" fill="#B0AFAD" d="M515.2,598h112.5c3.3,0,6,2.7,6,6v25c0,3.3-2.7,6-6,6H515.2c-3.3,0-6-2.7-6-6v-25
		C509.2,600.7,511.9,598,515.2,598z"/>
	<path display="inline" fill="#B0AFAD" d="M658.1,598h60.2c3.3,0,6,2.7,6,6v25c0,3.3-2.7,6-6,6h-60.2c-3.3,0-6-2.7-6-6v-25
		C652.1,600.7,654.8,598,658.1,598z"/>
	<path display="inline" fill="none" stroke="#79AAD3" stroke-width="12" stroke-miterlimit="10" d="M393.1,634.9h-44.5
		c-3.3,0-6-2.7-6-6v-25c0-3.3,2.7-6,6-6h44.5c3.3,0,6,2.7,6,6v25C399.1,632.2,396.4,634.9,393.1,634.9z"/>
	<path display="inline" fill="#B0AFAD" d="M283.1,708.8h110c3.3,0,6,2.7,6,6v25c0,3.3-2.7,6-6,6h-110c-3.3,0-6-2.7-6-6v-25
		C277.1,711.5,279.8,708.8,283.1,708.8z"/>
	<path display="inline" fill="#B0AFAD" d="M422.4,708.8h14.1c3.3,0,6,2.7,6,6v25c0,3.3-2.7,6-6,6h-14.1c-3.3,0-6-2.7-6-6v-25
		C416.4,711.5,419.1,708.8,422.4,708.8z"/>
	<path display="inline" fill="none" stroke="#79AAD3" stroke-width="12" stroke-miterlimit="10" d="M605.7,745.8H464.4
		c-3.3,0-6-2.7-6-6v-25c0-3.3,2.7-6,6-6h141.3c3.3,0,6,2.7,6,6v25C611.7,743.1,609,745.8,605.7,745.8z"/>
</g>
<g id="drag_the_words" display="none">
	<rect x="142" y="53.4" display="inline" fill="#66B27F" width="716" height="893.3"/>
	<g display="inline">
		<g opacity="0.15">
			<rect x="224.4" y="139.1" fill="#231F20" width="581.2" height="751.7"/>
		</g>
		<g>
			<rect x="209.4" y="124.1" fill="#FFFFFF" width="581.2" height="751.7"/>
		</g>
	</g>
	<g display="inline" opacity="0.5">
		<g opacity="0.2">
			<path d="M439.3,822.6H294.6c-7.4,0-13.5-6.1-13.5-13.5v-23c0-7.4,6.1-13.5,13.5-13.5h144.7c7.4,0,13.5,6.1,13.5,13.5v23
				C452.8,816.5,446.7,822.6,439.3,822.6z"/>
		</g>
		<g>
			<path fill="#8DB7E2" d="M435.3,814.6H290.6c-7.4,0-13.5-6.1-13.5-13.5v-23c0-7.4,6.1-13.5,13.5-13.5h144.7
				c7.4,0,13.5,6.1,13.5,13.5v23C448.8,808.5,442.7,814.6,435.3,814.6z"/>
		</g>
	</g>
	<g display="inline" opacity="0.5">
		<g opacity="0.2">
			<path d="M581.1,822.6h-88.6c-7.4,0-13.5-6.1-13.5-13.5v-23c0-7.4,6.1-13.5,13.5-13.5h88.6c7.4,0,13.5,6.1,13.5,13.5v23
				C594.6,816.5,588.5,822.6,581.1,822.6z"/>
		</g>
		<g>
			<path fill="#8DB7E2" d="M577.1,814.6h-88.6c-7.4,0-13.5-6.1-13.5-13.5v-23c0-7.4,6.1-13.5,13.5-13.5h88.6
				c7.4,0,13.5,6.1,13.5,13.5v23C590.6,808.5,584.5,814.6,577.1,814.6z"/>
		</g>
	</g>
	<g display="inline">
		<g opacity="0.15">
			<path d="M674.3,700.2h-283c-7.4,0-13.5-6.1-13.5-13.5V639c0-7.4,6.1-13.5,13.5-13.5h283c7.4,0,13.5,6.1,13.5,13.5v47.6
				C687.8,694.1,681.7,700.2,674.3,700.2z"/>
		</g>
		<g>
			<path fill="#79AAD3" d="M634.3,660.2h-283c-7.4,0-13.5-6.1-13.5-13.5V599c0-7.4,6.1-13.5,13.5-13.5h283c7.4,0,13.5,6.1,13.5,13.5
				v47.6C647.8,654.1,641.7,660.2,634.3,660.2z"/>
		</g>
	</g>
	<path display="inline" opacity="0.5" fill="#8DB7E2" d="M480.1,302.4H348.6c-3.3,0-6-2.7-6-6v-24c0-3.3,2.7-7,6-7h131.5
		c3.3,0,6,3.7,6,7v24C486.1,299.7,483.4,302.4,480.1,302.4z"/>
	<path display="inline" fill="#B0AFAD" d="M317,302.4h-33.9c-3.3,0-6-2.7-6-6v-24c0-3.3,2.7-7,6-7H317c3.3,0,6,3.7,6,7v24
		C323,299.7,320.3,302.4,317,302.4z"/>
	<path display="inline" fill="#B0AFAD" d="M583,302.4h-70.6c-3.3,0-6-2.7-6-6v-24c0-3.3,2.7-7,6-7H583c3.3,0,6,3.7,6,7v24
		C589,299.7,586.3,302.4,583,302.4z"/>
	<path display="inline" fill="#B0AFAD" d="M729.3,302.4H617.7c-3.3,0-6-2.7-6-6v-24c0-3.3,2.7-7,6-7h111.6c3.3,0,6,3.7,6,7v24
		C735.3,299.7,732.6,302.4,729.3,302.4z"/>
	<path display="inline" fill="#B0AFAD" d="M336.6,413.3h-53.5c-3.3,0-6-2.7-6-6v-25c0-3.3,2.7-6,6-6h53.5c3.3,0,6,2.7,6,6v25
		C342.6,410.6,339.9,413.3,336.6,413.3z"/>
	<path display="inline" fill="#B0AFAD" d="M405.5,413.3h-39.2c-3.3,0-6-2.7-6-6v-25c0-3.3,2.7-6,6-6h39.2c3.3,0,6,2.7,6,6v25
		C411.5,410.6,408.8,413.3,405.5,413.3z"/>
	<path display="inline" fill="#B0AFAD" d="M633.2,413.3h-89.3c-3.3,0-6-2.7-6-6v-25c0-3.3,2.7-6,6-6h89.3c3.3,0,6,2.7,6,6v25
		C639.2,410.6,636.5,413.3,633.2,413.3z"/>
	<path display="inline" fill="#B0AFAD" d="M690.4,413.3h-26.9c-3.3,0-6-2.7-6-6v-25c0-3.3,2.7-6,6-6h26.9c3.3,0,6,2.7,6,6v25
		C696.4,410.6,693.7,413.3,690.4,413.3z"/>
	<path display="inline" opacity="0.5" fill="#8DB7E2" d="M510.5,413.3h-75c-3.3,0-6-2.7-6-6v-25c0-3.3,2.7-6,6-6h75c3.3,0,6,2.7,6,6
		v25C516.5,410.6,513.8,413.3,510.5,413.3z"/>
	<path display="inline" fill="#B0AFAD" d="M605.5,487.1h39.2c3.3,0,6,2.7,6,6v25c0,3.3-2.7,6-6,6h-39.2c-3.3,0-6-2.7-6-6v-25
		C599.5,489.8,602.2,487.1,605.5,487.1z"/>
	<path display="inline" fill="#B0AFAD" d="M283.1,487.1h65.8c3.3,0,6,2.7,6,6v25c0,3.3-2.7,6-6,6h-65.8c-3.3,0-6-2.7-6-6v-25
		C277.1,489.8,279.8,487.1,283.1,487.1z"/>
	<path display="inline" fill="#79AAD3" d="M380.3,487.1h192.2c3.3,0,6,2.7,6,6v25c0,3.3-2.7,6-6,6H380.3c-3.3,0-6-2.7-6-6v-25
		C374.3,489.8,377,487.1,380.3,487.1z"/>
</g>
<g id="drag_and_drop_copy" display="none">
	<g display="inline">
		<path fill="none" stroke="#97BAF6" stroke-width="18" stroke-linejoin="bevel" stroke-dasharray="20.302,20.302" d="M474.5,501
			h-254c-15.7,0-28.5-12.8-28.5-28.5v-225c0-15.7,12.8-28.5,28.5-28.5h254c15.7,0,28.5,12.8,28.5,28.5v225
			C503,488.2,490.2,501,474.5,501z"/>
	</g>
	<g display="inline">
		<path fill="none" stroke="#DEDEDE" stroke-width="18" stroke-linejoin="bevel" stroke-dasharray="20.302,20.302" d="M822,501H568
			c-15.7,0-28.5-12.8-28.5-28.5v-225c0-15.7,12.8-28.5,28.5-28.5h254c15.7,0,28.5,12.8,28.5,28.5v225C850.5,488.2,837.7,501,822,501
			z"/>
	</g>
	<g display="inline">
		<path fill="none" stroke="#DEDEDE" stroke-width="18" stroke-linejoin="bevel" stroke-dasharray="20.302,20.302" d="M474.5,817.1
			h-254c-15.7,0-28.5-12.8-28.5-28.5v-225c0-15.7,12.8-28.5,28.5-28.5h254c15.7,0,28.5,12.8,28.5,28.5v225
			C503,804.3,490.2,817.1,474.5,817.1z"/>
	</g>
	<g display="inline">
		<path fill="none" stroke="#DEDEDE" stroke-width="18" stroke-linejoin="bevel" stroke-dasharray="20.302,20.302" d="M822,817.1
			H568c-15.7,0-28.5-12.8-28.5-28.5v-225c0-15.7,12.8-28.5,28.5-28.5h254c15.7,0,28.5,12.8,28.5,28.5v225
			C850.5,804.3,837.7,817.1,822,817.1z"/>
	</g>
	<g display="inline">
		<g opacity="0.2">
			<path d="M761,699H497c-13.2,0-24-10.8-24-24V441c0-13.2,10.8-24,24-24h264c13.2,0,24,10.8,24,24v234C785,688.2,774.2,699,761,699
				z"/>
		</g>
		<g>
			<path fill="#62C485" d="M721,659H457c-13.2,0-24-10.8-24-24V401c0-13.2,10.8-24,24-24h264c13.2,0,24,10.8,24,24v234
				C745,648.2,734.2,659,721,659z"/>
		</g>
	</g>
	<polygon display="inline" fill="#34495E" points="708.7,534.1 725,550.4 725,637 453,637 453,599.8 514.9,538.1 545.8,568.9 
		570.2,544.6 644.8,470 	"/>
	<circle display="inline" fill="#34495E" cx="489.8" cy="434.3" r="36.7"/>
</g>
<g id="documentation_tool" display="none">
	<g display="inline">
		<rect x="314.3" y="302.5" fill="#D35400" width="371.5" height="433.8"/>
		<g>
			<g opacity="0.25">
				<rect x="363.7" y="351.2" width="292.7" height="356.3"/>
			</g>
			<g>
				<rect x="353.7" y="341.2" fill="#FFFFFF" width="292.7" height="356.3"/>
			</g>
		</g>
		<rect x="428.1" y="302.5" fill="#34495E" width="143.8" height="66"/>
		<path fill="#34495E" d="M539.5,303h-16c0-14-10.5-23.5-23.5-23.5c-12.9,0-23.5,9.5-23.5,23.5h-16c0-22,17.7-39.5,39.5-39.5
			C521.8,263.5,539.5,281,539.5,303z"/>
		<g>
			<path fill="#2ECC71" d="M538.8,609.7l-37.6,37.6l-7.1,7.1c-0.9,0.9-2.2,1.5-3.5,1.5s-2.6-0.5-3.5-1.5l-7.1-7.1l-18.8-18.8
				c-0.9-0.9-1.5-2.2-1.5-3.5c0-1.3,0.5-2.6,1.5-3.5l7.1-7.1c0.9-0.9,2.2-1.5,3.5-1.5c1.3,0,2.6,0.5,3.5,1.5l15.3,15.3l34-34.1
				c0.9-0.9,2.2-1.5,3.5-1.5c1.3,0,2.6,0.5,3.5,1.5l7.1,7.1c0.9,0.9,1.5,2.2,1.5,3.5C540.2,607.5,539.7,608.8,538.8,609.7z"/>
		</g>
		<g>
			<circle fill="#2980B9" cx="419.7" cy="428.5" r="16.2"/>
			<g>
				<path fill="#2980B9" d="M596.5,435.7c0,1.7-1.4,3.1-3.1,3.1H454.6c-1.7,0-3.1-1.4-3.1-3.1v-14.4c0-1.7,1.4-3.1,3.1-3.1h138.8
					c1.7,0,3.1,1.4,3.1,3.1V435.7z"/>
			</g>
			<g>
				<path fill="#2980B9" d="M596.5,494.6c0,1.7-1.4,3.1-3.1,3.1H454.6c-1.7,0-3.1-1.4-3.1-3.1v-14.4c0-1.7,1.4-3.1,3.1-3.1h138.8
					c1.7,0,3.1,1.4,3.1,3.1V494.6z"/>
			</g>
			<g>
				<path fill="#2980B9" d="M596.5,553.5c0,1.7-1.4,3.1-3.1,3.1H454.6c-1.7,0-3.1-1.4-3.1-3.1v-14.4c0-1.7,1.4-3.1,3.1-3.1h138.8
					c1.7,0,3.1,1.4,3.1,3.1V553.5z"/>
			</g>
			<circle fill="#2980B9" cx="419.7" cy="487.4" r="16.2"/>
			<circle fill="#2980B9" cx="419.7" cy="546.3" r="16.2"/>
		</g>
	</g>
</g>
<g id="dialog_cards" display="none">
	<g display="inline">
		<g>
			<g opacity="0.15">
				<path d="M711.6,359l39.5,218.3c3.7,20.6-10.1,40.5-30.7,44.2l-387.8,70.2c-20.6,3.7-40.5-10.1-44.2-30.7l-39.5-218.3
					c-3.7-20.6,10.1-40.5,30.7-44.2l387.8-70.2C688,324.6,707.9,338.4,711.6,359z"/>
			</g>
			<g>
				<path fill="#D94D6A" d="M711.6,352l39.5,218.3c3.7,20.6-10.1,40.5-30.7,44.2l-387.8,70.2c-20.6,3.7-40.5-10.1-44.2-30.7
					l-39.5-218.3c-3.7-20.6,10.1-40.5,30.7-44.2l387.8-70.2C688,317.6,707.9,331.4,711.6,352z"/>
			</g>
		</g>
		<g>
			<g opacity="0.15">
				<path d="M717.9,356.2l20.5,220.9c1.9,20.8-13.5,39.5-34.4,41.4l-392.4,36.4c-20.8,1.9-39.5-13.5-41.4-34.4l-20.5-220.9
					c-1.9-20.8,13.5-39.5,34.4-41.4l392.4-36.4C697.4,319.9,716,335.4,717.9,356.2z"/>
			</g>
			<g>
				<path fill="#92CAB1" d="M717.9,349.2l20.5,220.9c1.9,20.8-13.5,39.5-34.4,41.4l-392.4,36.4c-20.8,1.9-39.5-13.5-41.4-34.4
					l-20.5-220.9c-1.9-20.8,13.5-39.5,34.4-41.4l392.4-36.4C697.4,312.9,716,328.4,717.9,349.2z"/>
			</g>
		</g>
		<g>
			<g opacity="0.15">
				<path d="M719,359.7v221.9c0,20.9-17.1,38.1-38.1,38.1H286.8c-20.9,0-38.1-17.1-38.1-38.1V359.7c0-20.9,17.1-38.1,38.1-38.1
					h394.1C701.9,321.6,719,338.8,719,359.7z"/>
			</g>
			<g>
				<path fill="#F6C358" d="M719,352.7v221.9c0,20.9-17.1,38.1-38.1,38.1H286.8c-20.9,0-38.1-17.1-38.1-38.1V352.7
					c0-20.9,17.1-38.1,38.1-38.1h394.1C701.9,314.6,719,331.8,719,352.7z"/>
			</g>
		</g>
		<g>
			<g>
				<path fill="#ED7864" d="M430.8,496.8c-5.5,0-10.9-0.3-16.2-0.9c-14.6,12.9-32,22.1-51.3,27c-4,1.1-8.4,1.9-12.7,2.5
					c-2.5,0.2-4.8-1.6-5.3-4.2c0-0.1,0-0.1,0-0.1c-0.6-2.8,1.3-4.5,3-6.5c7-7.9,15-14.6,20.3-33.2c-23-13-37.7-33.2-37.7-55.8
					c0-39.3,44.7-71.3,99.8-71.3s99.8,31.9,99.8,71.3S486,496.8,430.8,496.8z"/>
			</g>
		</g>
		<g>
			<g>
				<path fill="#50B5D8" d="M423.7,467c0-41.7,47.2-75.4,105.5-75.4s105.5,33.8,105.5,75.4c0,23.9-15.6,45.2-39.8,59
					c5.5,19.7,14,26.7,21.4,35.1c1.8,2.1,3.8,3.9,3.2,6.8c0,0,0,0,0,0.1c-0.6,2.8-3.1,4.7-5.7,4.5c-4.6-0.6-9.2-1.4-13.4-2.6
					c-20.4-5.2-38.8-14.8-54.2-28.5c-5.5,0.6-11.3,0.9-17.1,0.9C471,542.4,423.7,508.7,423.7,467z"/>
			</g>
		</g>
	</g>
</g>
<g id="course_presentation" display="none">
	<ellipse display="inline" opacity="0.1" fill="#2C3E50" cx="499" cy="679.8" rx="233.2" ry="21.8"/>
	
		<rect x="310.1" y="507.9" transform="matrix(5.792351e-011 -1 1 5.792351e-011 -13.7271 1011.7725)" display="inline" fill="#EA964D" width="377.8" height="9.7"/>
	
		<rect x="401" y="618.8" transform="matrix(0.7071 -0.7071 0.7071 0.7071 -303.6303 514.3189)" display="inline" fill="#EA964D" width="136" height="9.7"/>
	
		<rect x="461" y="618.8" transform="matrix(0.7071 0.7071 -0.7071 0.7071 595.951 -191.4057)" display="inline" fill="#EA964D" width="136" height="9.7"/>
	<rect x="265.8" y="341.3" display="inline" fill="#F0F1F5" width="466.5" height="270"/>
	<rect x="512.4" y="420.4" display="inline" fill="#B8B8BF" width="142.5" height="13.5"/>
	<rect x="512.4" y="450.4" display="inline" fill="#B8B8BF" width="156" height="13.5"/>
	<rect x="512.4" y="480.4" display="inline" fill="#B8B8BF" width="112.5" height="13.5"/>
	<g display="inline">
		<polygon fill="#B8B8BF" points="490.6,580 469.2,567.7 490.6,555.3 		"/>
		<polygon fill="#B8B8BF" points="509.2,555.3 530.6,567.7 509.2,580 		"/>
	</g>
	<g display="inline">
		
			<rect x="343.8" y="440.5" transform="matrix(0.9666 0.2564 -0.2564 0.9666 131.3899 -74.0548)" fill="#34495E" width="11.9" height="52.7"/>
		
			<rect x="398.9" y="410.1" transform="matrix(0.228 -0.9737 0.9737 0.228 -112.409 731.1519)" fill="#34495E" width="11.9" height="52.7"/>
		
			<ellipse transform="matrix(1.241650e-002 -0.9999 0.9999 1.241650e-002 -70.2611 776.1367)" fill="#E94C3D" cx="357.8" cy="423.6" rx="32.6" ry="32.6"/>
		<path fill="#C1392B" d="M358.2,391c-1.5,0-3,0.1-4.4,0.2c16.3,2,28.8,16,28.6,32.8c-0.2,16.5-12.7,30-28.7,32
			c1.2,0.1,2.4,0.2,3.6,0.2c18,0.2,32.8-14.2,33-32.2S376.2,391.2,358.2,391z"/>
		
			<ellipse transform="matrix(1.241650e-002 -0.9999 0.9999 1.241650e-002 -169.2633 838.6976)" fill="#3497DA" cx="340" cy="505" rx="26.2" ry="26.2"/>
		
			<ellipse transform="matrix(1.241650e-002 -0.9999 0.9999 1.241650e-002 -9.3485 884.4493)" fill="#3497DA" cx="443.1" cy="447" rx="26.2" ry="26.2"/>
		<path fill="#2A80BB" d="M443.4,420.8c-1.5,0-2.9,0.1-4.3,0.3c12.7,1.9,22.3,13,22.2,26.2c-0.2,13-9.7,23.6-22.2,25.5
			c1.2,0.2,2.4,0.3,3.7,0.3c14.4,0.2,26.3-11.4,26.5-25.8C469.4,432.8,457.8,421,443.4,420.8z"/>
		<path fill="#2A80BB" d="M340.3,478.9c-1.5,0-2.9,0.1-4.3,0.3c12.7,1.9,22.3,13,22.2,26.2c-0.2,13-9.7,23.6-22.2,25.5
			c1.2,0.2,2.4,0.3,3.7,0.3c14.4,0.2,26.3-11.4,26.5-25.8C366.3,490.9,354.7,479.1,340.3,478.9z"/>
	</g>
	<rect x="265.8" y="341.3" display="inline" opacity="0.1" fill="#2C3E50" width="466.5" height="11.1"/>
	<g display="inline">
		<polygon opacity="0.1" fill="#2C3E50" points="477.2,622 488.3,611 474.5,611 463.4,622 		"/>
		<polygon opacity="0.1" fill="#2C3E50" points="523.5,611 509.8,611 520.9,622 534.7,622 		"/>
		<rect x="494" y="611" opacity="0.1" fill="#2C3E50" width="10" height="11"/>
	</g>
	<rect x="255.3" y="332.7" display="inline" fill="#EA964D" width="487.5" height="9.7"/>
	<circle display="inline" fill="#8E44AD" cx="645.9" cy="487" r="10.3"/>
</g>
<g id="collage" display="none">
	<rect x="520" y="520" display="inline" fill="#97BAF6" width="189" height="185"/>
	<circle display="inline" fill="#FFFFFF" cx="579" cy="611" r="25"/>
	<polygon display="inline" fill="#3D6084" points="520,705 595.7,705 520,617.6 	"/>
	<polygon display="inline" fill="#3D6084" points="709,695.2 616.6,588.6 520,700.1 520,705 709,705 	"/>
	<polygon display="inline" fill="#3D6084" points="709,705 709,602.2 619.9,705 	"/>
	<g display="inline" opacity="0.1">
		<g>
			<g>
				<polygon points="610.9,705 619.9,705 668.7,648.7 664.2,643.5 				"/>
			</g>
		</g>
	</g>
	<polygon display="inline" opacity="0.1" points="520,689.5 520,699.9 555.6,658.8 551.1,653.6 	"/>
	<rect x="291" y="295" display="inline" fill="#97BAF6" width="189" height="410"/>
	<circle display="inline" fill="#FFFFFF" cx="350" cy="611" r="25"/>
	<polygon display="inline" fill="#3D6084" points="291,705 366.7,705 291,617.6 	"/>
	<polygon display="inline" fill="#3D6084" points="480,695.2 387.6,588.6 291,700.1 291,705 480,705 	"/>
	<polygon display="inline" fill="#3D6084" points="480,705 480,602.2 390.9,705 	"/>
	<g display="inline" opacity="0.1">
		<g>
			<g>
				<polygon points="381.9,705 390.9,705 439.7,648.7 435.2,643.5 				"/>
			</g>
		</g>
	</g>
	<polygon display="inline" opacity="0.1" points="291,689.5 291,699.9 326.6,658.8 322.1,653.6 	"/>
	<rect x="520" y="295" display="inline" fill="#97BAF6" width="189" height="185"/>
	<polygon display="inline" opacity="0.1" points="540,540 709,540 709,520 520,520 520,705 540,705 	"/>
	<polygon display="inline" opacity="0.1" points="311,315 480,315 480,295 291,295 291,705 311,705 	"/>
	<circle display="inline" fill="#FFFFFF" cx="579" cy="386" r="25"/>
	<polygon display="inline" fill="#3D6084" points="520,480 595.7,480 520,392.6 	"/>
	<polygon display="inline" fill="#3D6084" points="709,470.2 616.6,363.6 520,475.1 520,480 709,480 	"/>
	<polygon display="inline" fill="#3D6084" points="709,480 709,377.2 619.9,480 	"/>
	<g display="inline" opacity="0.1">
		<g>
			<g>
				<polygon points="610.9,480 619.9,480 668.7,423.7 664.2,418.5 				"/>
			</g>
		</g>
	</g>
	<polygon display="inline" opacity="0.1" points="520,464.5 520,474.9 555.6,433.8 551.1,428.6 	"/>
	<polygon display="inline" opacity="0.1" points="540,315 709,315 709,295 520,295 520,480 540,480 	"/>
</g>
<g id="boardgame_1_" display="none">
	<g id="boardgame" display="inline">
		<g>
			<g>
				<g>
					<polygon fill="#435D74" points="408.9,597 498.3,645.1 587.6,597 498.3,549 					"/>
					<polygon fill="#435D74" points="320.9,547.7 410.2,499.6 320.9,451.5 231.5,499.6 					"/>
					<path fill="#435D74" d="M547.6,500.6c0.2-1.4,0.4-2.9,0.6-4.6c0.8-6.5,2.4-11.6,4.3-16l-53-28.5l-89.3,48.1l89.3,48.1
						l46.6-25.1C546,513,546.7,507.9,547.6,500.6z"/>
					<g>
						<g>
							<path fill="#435D74" d="M498.7,355.8L411.1,403l89.3,48.1l53.2-28.6c-0.1-0.8-0.1-1.6-0.1-2.3c0-11.9,6.1-22.3,15.4-28.3
								L500.4,355"/>
							<path fill="#435D74" d="M677.4,452l-54.6,29.4c1.6,4.1,3,8.8,3.7,14.6c0.2,1.7,0.4,3.2,0.6,4.6c0.9,6.6,1.5,11.4,1.5,19.4
								l50.6,27.2l87.6-47.1"/>
							<line fill="none" x1="768.5" y1="499.1" x2="679.1" y2="451"/>
						</g>
					</g>
				</g>
			</g>
			<path fill="#CC72A5" d="M614.3,495c-1.6-14.2-7.5-20.8-10.4-27.7c-2.2-5.4-3.9-16.1-1.5-23.1c4.6-4.5,7.5-11.1,7.5-18.4
				c0-13.7-10.1-24.8-22.5-24.8s-22.5,11.1-22.5,24.8c0,7.3,2.9,13.9,7.5,18.4c2.4,7,0.7,17.7-1.5,23.1c-2.8,6.9-8.8,13.5-10.4,27.7
				c-1.6,14.2-2.7,17,0,49.5c6.6,10.3,23,10.6,26.9,10.6c3.9,0.1,20.3-0.2,26.9-10.6C617,512,615.9,509.1,614.3,495z"/>
		</g>
	</g>
</g>
<g id="chart">
	<g>
		<g>
			<rect x="529.9" y="455.4" fill="#E66D7E" width="56" height="209.5"/>
			<rect x="444.7" y="492.2" fill="#62A6EF" width="56" height="172.6"/>
			<rect x="700.2" y="492.2" fill="#23C596" width="56" height="172.6"/>
			<rect x="615.1" y="393.9" fill="#F7CF5C" width="56" height="271"/>
			<polygon fill="#3D6084" points="424,684 424,390 401,390 401,707 422.9,707 757,707 757,684 			"/>
		</g>
		<g>
			<g opacity="0.1">
				<path d="M402,450.3l105.7-105.7l0,0c27.2,27.2,44.1,64.9,44.1,106.5s-16.8,79.3-44.1,106.5l0,0L401.2,451L402,450.3z"/>
				<path d="M507.7,344.5L507.7,344.5L402,450.3V300.4C443.3,300.6,480.7,317.4,507.7,344.5z"/>
				<path d="M507.7,557.5L507.7,557.5c-27.2,27.3-64.8,44.1-106.5,44.1c-41.6,0-79.3-16.8-106.5-44.1l0,0L401.2,451L507.7,557.5z"/>
				<path d="M402,300.4v149.8l-0.7,0.7L294.8,557.5l0,0c-27.2-27.2-44.1-64.9-44.1-106.5c0-83.2,67.3-150.6,150.6-150.6
					C401.5,300.4,401.7,300.4,402,300.4z"/>
			</g>
			<g>
				<g>
					<g>
						<g>
							<g>
								<path fill="#23C596" d="M395,443.3l105.7-105.7l0,0c27.2,27.2,44.1,64.9,44.1,106.5s-16.8,79.3-44.1,106.5l0,0L394.2,444
									L395,443.3z"/>
								<path fill="#F7CF5C" d="M500.7,337.5L500.7,337.5L395,443.3V293.4C436.3,293.6,473.7,310.4,500.7,337.5z"/>
								<path fill="#E66D7E" d="M500.7,550.5L500.7,550.5c-27.2,27.3-64.8,44.1-106.5,44.1c-41.6,0-79.3-16.8-106.5-44.1l0,0
									L394.2,444L500.7,550.5z"/>
								<path fill="#62A6EF" d="M395,293.4v149.8l-0.7,0.7L287.8,550.5l0,0c-27.2-27.2-44.1-64.9-44.1-106.5
									c0-83.2,67.3-150.6,150.6-150.6C394.5,293.4,394.7,293.4,395,293.4z"/>
							</g>
						</g>
					</g>
				</g>
			</g>
		</g>
	</g>
</g>
<g id="impressive_pres" display="none">
	<polygon id="XMLID_114_" display="inline" fill="#E66D7E" points="859.5,781.6 591.5,705.4 591.5,408.2 859.5,386.5 	"/>
	<path id="XMLID_107_" display="inline" fill="#FFFFFF" d="M655.2,562.9c0-11.2-5.9-20.6-13.2-21.1c-7.2-0.5-13,8-13,18.9
		c0,11,5.8,20.4,13,21.1C649.2,582.5,655.2,574,655.2,562.9z"/>
	<path id="XMLID_113_" display="inline" fill="#FFFFFF" d="M820,503.4c0,7-4.2,12.5-9.3,12.3l-133.3-5.9c-4.2-0.2-6.5-5.3-6.5-11.6
		v-8.3c0-6.3,2.3-11.5,6.5-11.4l133.7,3c5.1,0.1,8.8,5.8,8.8,12.8V503.4z"/>
	<path id="XMLID_112_" display="inline" fill="#FFFFFF" d="M820,581.7c0,7-4.2,12.3-9.3,11.8l-133.3-12.8c-4.2-0.4-6.5-5.8-6.5-12.1
		v-8.3c0-6.3,2.3-11.3,6.5-10.9l133.7,9.8c5.1,0.4,8.8,6.3,8.8,13.3V581.7z"/>
	<path id="XMLID_111_" display="inline" fill="#FFFFFF" d="M820,660c0,7-4.2,12-9.3,11.3l-133.3-19.6c-4.2-0.6-6.5-6.2-6.5-12.5
		v-8.3c0-6.3,2.3-11,6.5-10.5L811.2,637c5.1,0.6,8.8,6.8,8.8,13.8V660z"/>
	<polygon id="XMLID_76_" display="inline" opacity="0.2" points="686.6,541.7 686.6,402.8 591.5,409.5 591.5,534.6 	"/>
	<path id="XMLID_108_" display="inline" fill="#FFFFFF" d="M641.9,472.5c-4.3-0.1-8.1,3-10.4,7.8c-0.7,1.5-1.3,3.2-1.8,5
		c-0.1,0.6-0.3,1.2-0.4,1.9c-0.3,1.6-0.4,3.2-0.4,4.9c0,11,5.8,20.1,13,20.5c1.8,0.1,3.5-0.4,5.1-1.3c4.8-2.8,8.1-9.9,8.1-18.3
		C655.2,481.8,649.2,472.7,641.9,472.5z M641.9,503.2c-3.8-0.2-6.9-5.1-6.9-10.9c0-5.9,3.1-10.5,6.9-10.4c3.9,0.1,7,5,7,10.9
		C649,498.7,645.8,503.4,641.9,503.2z"/>
	<path id="XMLID_16_" display="inline" fill="#FFFFFF" d="M647.1,613.1c-1.6-1.2-3.3-2-5.1-2.2c-7.2-0.9-13,7.3-13,18.3
		c0,11,5.8,20.7,13,21.8c1.8,0.3,3.5,0,5.1-0.8c4.8-2.4,8.1-9.1,8.1-17.4S651.8,616.8,647.1,613.1z M641.9,641.6
		c-3.8-0.5-6.9-5.8-6.9-11.6s3.1-10.2,6.9-9.7c3.9,0.5,7,5.7,7,11.6S645.8,642.2,641.9,641.6z"/>
	<polygon id="XMLID_14_" display="inline" fill="#F7CF5C" points="652.4,508.1 387.8,485.3 387.8,189.5 652.4,118.1 	"/>
	<g id="XMLID_94_" display="inline">
		<path id="XMLID_96_" fill="#FFFFFF" d="M602.5,422.8c0,13.9-7.6,25.3-16.7,25.3l-145.6-0.4c-7,0-12.7-9.9-12.7-21.9V259.9
			c0-12,5.7-22.9,12.7-24.2l145.6-27.4c9.1-1.7,16.7,8.3,16.7,22.2V422.8z M440.2,253.3c-1.4,0.2-2.6,2.5-2.6,4.9v167.5
			c0,2.3,1.2,4.4,2.6,4.4l145.6-1.9c1.8,0,3.3-2.4,3.3-5.1V232.6c0-2.7-1.6-4.7-3.3-4.4L440.2,253.3z M463.8,321.4
			c-8.8,1-15.9-10.2-15.9-25c0-14.7,7.1-27.8,15.9-29.2c9-1.4,16.3,9.7,16.3,24.9C480.2,307.3,472.8,320.4,463.8,321.4z M576,408.4
			l-128,3.7v-26.7l26.7-47l13.8,21.8l46.7-80.1l40.8,58.9V408.4z"/>
	</g>
	<polygon id="XMLID_72_" display="inline" opacity="0.2" points="387.8,485.5 537.4,498.4 537.4,330.6 387.8,352.7 	"/>
	<polygon id="XMLID_9_" display="inline" fill="#23C596" points="515.3,843.9 182.5,761 182.5,413 515.3,364 	"/>
	<g id="XMLID_50_" display="inline">
		<path id="XMLID_56_" fill="#FFFFFF" stroke="#FFFFFF" stroke-width="2" stroke-miterlimit="10" d="M269,662.3l-0.9-16.5l-0.4,0
			c-3.3,9.7-9.7,17.9-18,16.7c-11.5-1.7-17.3-20.5-17.3-38.6c0-30.3,12.1-46.1,34.7-44.5v-2.7c0-10.7-1.4-30.1-13.4-30.4
			c-5.4-0.1-10.9,3.4-14.9,9l-2.3-15.2c4.7-6.7,11.5-11.1,18.8-11c18.2,0.2,22.7,27.6,22.7,54v49.2c0,11.4,0.3,22.6,1,31.7
			L269,662.3z M267.3,595.7c-11.7-1.4-24.7,2-24.7,26.6c0,14.9,4.5,22.6,9.9,23.3c7.6,1,12.5-9.1,14.2-19.9c0.4-2.4,0.6-5,0.6-7.5
			V595.7z"/>
		<path id="XMLID_53_" fill="#FFFFFF" stroke="#FFFFFF" stroke-width="2" stroke-miterlimit="10" d="M295.8,666.3
			c0.3-9.1,0.5-22.6,0.5-34.5V469.8l11.6-0.6v85.1l0.3,0c4.2-15.1,11.8-24.8,22.7-24.7c17.1,0.1,29.7,29.7,29.5,73
			c0,51-16,73.9-31.3,71.6c-9.7-1.5-17.4-10.2-22.2-28.8l-0.4-0.1l-0.5,22.3L295.8,666.3z M307.9,613.7c0,3.1,0.3,6.2,0.5,9
			c2.3,17.4,9.2,30.1,18.1,31.2c13,1.7,20.9-19.1,20.9-51.4c0-28.2-7.2-52.6-20.5-53c-8.3-0.2-15.9,11.1-18.4,29.7
			c-0.3,2.8-0.7,6.1-0.7,10V613.7z"/>
		<path id="XMLID_51_" fill="#FFFFFF" stroke="#FFFFFF" stroke-width="2" stroke-miterlimit="10" d="M432.9,680.8
			c-3.9,3.2-12.4,7-23.1,5.4c-23.3-3.5-37.9-35.2-37.9-79.3c0-44.4,15.7-76.4,41.1-76.2c8.6,0.1,16.3,4.2,20.4,8.1l-3.4,21.3
			c-3.5-3.9-9.1-7.5-17-7.7c-17.9-0.5-27.4,24-27.4,54.4c0,33.8,11.4,56.1,26.9,58.1c8.3,1.1,13.8-2.3,18-5.2L432.9,680.8z"/>
	</g>
</g>
<g id="basic_arithmetic_quiz" display="none">
	<circle display="inline" fill="#3D6084" cx="495.6" cy="492.6" r="234"/>
	<g display="inline">
		<g opacity="0.2">
			<rect x="380.9" y="412.6" width="104.3" height="24.8"/>
			<rect x="380.9" y="412.6" transform="matrix(4.489038e-011 -1 1 4.489038e-011 8.031 857.9999)" width="104.3" height="24.8"/>
			<rect x="380.9" y="565" transform="matrix(0.7071 -0.7071 0.7071 0.7071 -281.4592 475.3059)" width="104.3" height="24.8"/>
			<rect x="380.9" y="565" transform="matrix(-0.7071 -0.7071 0.7071 -0.7071 330.9171 1291.8788)" width="104.3" height="24.8"/>
			<rect x="526.5" y="412.6" width="97.9" height="24.8"/>
			<rect x="526.5" y="565" width="97.9" height="24.8"/>
			<circle cx="574.7" cy="544.4" r="15.8"/>
			<circle cx="574.7" cy="610.1" r="15.8"/>
		</g>
		<g>
			<g>
				<g>
					<rect x="373.9" y="405.6" fill="#FFFFFF" width="104.3" height="24.8"/>
					
						<rect x="373.9" y="405.6" transform="matrix(4.489038e-011 -1 1 4.489038e-011 8.031 843.9999)" fill="#FFFFFF" width="104.3" height="24.8"/>
				</g>
				<g>
					
						<rect x="373.9" y="558" transform="matrix(0.7071 -0.7071 0.7071 0.7071 -278.5597 468.3059)" fill="#FFFFFF" width="104.3" height="24.8"/>
					
						<rect x="373.9" y="558" transform="matrix(-0.7071 -0.7071 0.7071 -0.7071 323.9171 1274.9794)" fill="#FFFFFF" width="104.3" height="24.8"/>
				</g>
				<rect x="519.5" y="405.6" fill="#FFFFFF" width="97.9" height="24.8"/>
				<rect x="519.5" y="558" fill="#FFFFFF" width="97.9" height="24.8"/>
				<circle fill="#FFFFFF" cx="567.7" cy="537.4" r="15.8"/>
				<circle fill="#FFFFFF" cx="567.7" cy="603.1" r="15.8"/>
			</g>
		</g>
	</g>
</g>
<g id="appear_in" display="none">
	<path display="inline" fill="#41CC8D" d="M711.9,447.4c0,37.2,0,74.4,0,111.6c0,0.7,0,1.4,0,2.2c0,0.9,0,1.9-0.9,2.4
		c-1.1,0.5-1.7-0.4-2.3-1.1c-10.2-10.4-20.2-21.1-30.5-31.3c-4.3-4.2-5.5-8.8-5.5-14.6c0.2-47.4,0.1-94.9,0.1-142.3
		c0-3.7,1.1-6.6,3.7-9.2c10.6-10.8,21.1-21.7,31.6-32.5c0.8-0.8,1.4-2.2,2.8-1.7c1.5,0.6,1,2.1,1,3.3
		C711.9,371.9,711.9,409.7,711.9,447.4z"/>
	<path display="inline" fill="#41CC8D" d="M650.4,465.4L650.4,465.4c0-0.5,0.1-0.9,0.1-1.4c0-38.5,0-77,0-115.5
		c0-1.3-0.1-2.5-0.3-3.8c-2.4-10.3-10.7-16.9-21.4-16.9c-73,0-146,0-219,0c-21.5,0-42.9,0-64.4,0c-12.2,0-21.5,9.3-21.6,21.4
		c0,8.2,0,16.5,0,24.7c1.3,0,2.5,0.1,3.8,0.1c85.5,0,170.9,0,256.4,0c3.3,0,6.5,0.4,9.5,1.6c7.6,3.1,11.8,8.9,13.5,16.8
		c0,0.4-0.1,0.7-0.1,1.1c0,56,0,111.9,0,167.9c0,1.1,0.1,2.2,0.1,3.3c10.8,0,21.5-0.1,32.3-0.1c3.9,0,6.5-1.7,8.3-4.9
		c2-3.7,2.8-7.7,2.8-12c0-26.7,0-53.3,0.1-80C650.6,467,650.5,466.2,650.4,465.4z"/>
	<g display="inline">
		<path fill="#FF2E63" d="M607,562c-0.1-56.2,0.2-112.3-0.1-168.5c-1.7-9.8-8.2-16.7-17.9-18.8c-2.5-0.5-5-0.6-7.6-0.6
			c-75.6,0-151.2,0-226.8,0c-9.1,0-18.3,0-27.4,0c-1.4,0-2.9-0.2-4.2,0.8c-7.5,0-15,0.1-22.5,0.1c-4.1,0-8.1,0.8-11.7,3
			c-7.4,4.5-10.7,11.2-10.7,19.7c0,26.3,0,52.5,0,78.8c0,37.9,0,75.9,0,113.8c0,7.5,2.4,13.8,8.4,18.5c4.5,3.5,9.7,4.5,15.3,4.5
			c31.4,0,62.8,0,94.3,0c2,0,3.6,0.5,5.3,1.6c31.3,22,62.6,43.9,93.9,65.9c0.7,0.5,1.3,1.6,2.6,1.1c0-21.7,0-43.3,0-64.9
			c0-3.7,0-3.7,3.6-3.7c27.2,0,54.3-0.2,81.5,0.1c15.1,0.1,24.1-11.2,23.4-23.3c-0.5-8.1,0-16.3,0-24.4
			C607.1,564.6,607,563.3,607,562z M492.1,551.8c-6.9-0.2-13.8-0.1-20.6,0c-1.8,0-2.3-0.6-2.3-2.3c0.1-2.7,0-5.4,0-8.6
			c-1.9,1.5-3.5,2.8-5.2,4.1c-23.3,18.2-57.9,10.9-72.7-16.3c-5-9.2-7.3-18.9-7.6-29.3c-0.3-12.7,1.8-24.8,8.8-35.7
			c8.4-13.2,20-21.8,35.8-23.8c13.9-1.8,26.3,1.9,36.9,11.3c1.2,1.1,2.4,2.1,4,3.6c0-3.9,0.1-7,0-10.2c-0.1-1.7,0.5-2.1,2.2-2.1
			c7.1,0.1,14.1,0.1,21.2,0c2,0,2.3,0.7,2.3,2.5c-0.1,17.2,0,34.4,0,51.6c0,17.5,0,35,0,52.4C494.8,551,494.4,551.8,492.1,551.8z"/>
		<path fill="#FF2E63" d="M443,462.5c-13.6-0.9-24.8,5.7-30,18.3c-4.9,11.8-4.6,23.9,1.2,35.4c10.4,20.8,37.2,19.9,48.7,5.6
			c5.8-7.2,7.9-15.5,8-24.5c0-4.2-0.6-8.3-1.7-12.3C465.6,472.3,455.1,463.3,443,462.5z"/>
	</g>
</g>
<g id="accordion" display="none">
	<rect x="186.8" y="361" display="inline" fill="#DDDDDD" width="625.3" height="314"/>
	<rect x="186.8" y="361" display="inline" fill="#C6C6C6" width="625.3" height="52.1"/>
	<path display="inline" fill="#8DB7E2" d="M825.5,273h-651c-6.6,0-12-5.4-12-12v-85.5c0-6.6,5.4-12,12-12h651c6.6,0,12,5.4,12,12
		V261C837.5,267.6,832.1,273,825.5,273z"/>
	<path display="inline" fill="#8DB7E2" d="M825.5,392.5h-651c-6.6,0-12-5.4-12-12V295c0-6.6,5.4-12,12-12h651c6.6,0,12,5.4,12,12
		v85.5C837.5,387.1,832.1,392.5,825.5,392.5z"/>
	<path display="inline" fill="#8DB7E2" d="M825.5,800.5h-651c-6.6,0-12-5.4-12-12V703c0-6.6,5.4-12,12-12h651c6.6,0,12,5.4,12,12
		v85.5C837.5,795.1,832.1,800.5,825.5,800.5z"/>
	<rect x="274.5" y="727.2" display="inline" fill="#2376C1" width="211.5" height="37"/>
	<rect x="274.5" y="319.2" display="inline" fill="#2376C1" width="171" height="37"/>
	<rect x="222.5" y="425.7" display="inline" fill="#8DB7E2" width="475.8" height="37"/>
	<rect x="222.5" y="485.7" display="inline" fill="#8DB7E2" width="392.2" height="37"/>
	<rect x="222.5" y="545.7" display="inline" fill="#8DB7E2" width="311.5" height="37"/>
	<rect x="222.5" y="605.7" display="inline" fill="#8DB7E2" width="370.6" height="37"/>
	<rect x="274.5" y="199.9" display="inline" fill="#2376C1" width="223.5" height="37"/>
	<g display="inline">
		<path fill="#2376C1" d="M243.1,743.9c1,1,1,2.6,0,3.7L213,777.7c-1,1-2.7,1-3.7,0l-6.7-6.7c-1-1-1-2.6,0-3.7l21.6-21.6l-21.6-21.6
			c-1-1-1-2.6,0-3.7l6.7-6.7c1-1,2.7-1,3.7,0L243.1,743.9z"/>
	</g>
	<g display="inline">
		<path fill="#2376C1" d="M243.1,216.4c1,1,1,2.6,0,3.7L213,250.2c-1,1-2.7,1-3.7,0l-6.7-6.7c-1-1-1-2.6,0-3.7l21.6-21.6l-21.6-21.6
			c-1-1-1-2.6,0-3.7l6.7-6.7c1-1,2.7-1,3.7,0L243.1,216.4z"/>
	</g>
	<g display="inline">
		<path fill="#2376C1" d="M224.6,358c-1,1-2.6,1-3.7,0l-30.1-30.1c-1-1-1-2.7,0-3.7l6.7-6.7c1-1,2.6-1,3.7,0l21.6,21.6l21.6-21.6
			c1-1,2.6-1,3.7,0l6.7,6.7c1,1,1,2.7,0,3.7L224.6,358z"/>
	</g>
</g>
<g id="frame" display="none">
	
		<rect x="243.6" y="243.6" display="inline" fill="none" stroke="#E26A98" stroke-width="2" stroke-miterlimit="10" width="512.8" height="512.8"/>
</g>
</svg>
